<svg xmlns="http://www.w3.org/2000/svg" xml:space="preserve" id="svg37" x="0" y="0" version="1.1" viewBox="0 0 332 106.4"><style>.st1{fill:#fff}</style><path id="path10" d="M46.9 97.5v-6a3.5 3.5 0 0 0-3.2-3.8h-.5a4 4 0 0 0-3.4 1.7 3.5 3.5 0 0 0-3.2-1.7c-1.1 0-2.2.5-2.9 1.4v-1.2h-1.9v9.6h1.9V92c-.1-1.2.7-2.3 2-2.5h.4c1.4 0 2.2.9 2.2 2.5v5.5h1.9V92c-.1-1.2.7-2.3 2-2.5h.4c1.4 0 2.2.9 2.2 2.5v5.5h2.1zM78.1 88h-3.5v-2.9h-1.9V88h-2v1.7h2v4.5c0 2.2.8 3.5 3.2 3.5a6 6 0 0 0 2.6-.7l-.6-1.7c-.5.3-1.2.5-1.8.5-.8.1-1.4-.5-1.5-1.3v-4.9h3.5V88zm17.8-.3a3 3 0 0 0-2.6 1.4v-1.2h-1.9v9.6h1.9v-5.4c0-1.6.8-2.6 2.1-2.6l1.3.2.6-1.8-1.4-.2zm-26.9 1a6.7 6.7 0 0 0-3.9-1c-2.4 0-3.9 1.1-3.9 3 0 1.6 1.1 2.5 3.2 2.8l1 .1c1.1.2 1.8.6 1.8 1.1 0 .7-.8 1.2-2.3 1.2-1.1 0-2.3-.3-3.2-1l-1 1.5c1.2.8 2.6 1.2 4.1 1.2 2.8 0 4.3-1.3 4.3-3.1s-1.2-2.5-3.3-2.8l-1-.1c-.9-.1-1.7-.4-1.7-1s.8-1.2 1.9-1.2c1 0 2.1.3 3 .8l1-1.5zm29.1 4a4.7 4.7 0 0 0 4.4 5h.6c1.2.1 2.4-.3 3.4-1.1l-1-1.5c-.7.6-1.6.9-2.5.9a3.1 3.1 0 0 1-2.9-3.5 3.1 3.1 0 0 1 2.9-2.9c.9 0 1.8.3 2.5.9l1-1.5c-1-.8-2.2-1.2-3.4-1.1a4.5 4.5 0 0 0-5 3.9v.9zm-13.5-5c-2.8 0-4.7 2-4.7 5a4.7 4.7 0 0 0 4.4 5h.5c1.4 0 2.8-.4 3.9-1.3l-1-1.4c-.8.6-1.8 1-2.8 1-1.5.1-2.7-1-2.9-2.5h7.1v-.8c0-3-1.8-5-4.5-5zm0 1.8c1.3-.1 2.4 1 2.5 2.3v.1h-5.2a2.6 2.6 0 0 1 2.7-2.4zm-25.9 3.2v-4.8h-1.9v1.2a3.7 3.7 0 0 0-3.1-1.4c-2.8 0-5 2.2-5 5s2.2 5 5 5c1.2.1 2.4-.5 3.1-1.4v1.2h1.9v-4.8zm-7.8 0c.1-1.7 1.5-2.9 3.2-2.8s2.9 1.5 2.8 3.2c-.1 1.6-1.4 2.8-3 2.8s-3-1.2-3-2.9v-.3zm73.9-5a3 3 0 0 0-2.6 1.4v-1.2h-1.9v9.6h1.9v-5.4c0-1.6.8-2.6 2.1-2.6l1.3.2.6-1.8-1.4-.2zm15.4 8.4.4.1.5.5.1.4-.1.4-.2.3-.3.2-.4.1-.4-.1-.3-.2-.2-.3-.1-.4.1-.4.2-.3.3-.2.4-.1zm0 1.7.3-.1.2-.2.2-.2.1-.3-.1-.3-.2-.2-.2-.2-.3-.1-.3.1-.2.2-.2.2-.1.3.1.3.2.2.2.2.3.1zm.1-1.1.3.1.1.3-.1.1-.2.1.3.3h-.3l-.3-.3h-.1v.3h-.2v-.9h.5zm-.2.1v.2h.3v-.2h-.3zm-22.7-4.1v-4.8h-1.9v1.2a3.7 3.7 0 0 0-3.1-1.4c-2.8 0-5 2.2-5 5s2.2 5 5 5c1.2.1 2.4-.5 3.1-1.4v1.2h1.9v-4.8zm-7.7 0c.1-1.7 1.5-2.9 3.2-2.8s2.9 1.5 2.8 3.2a3 3 0 0 1-3 2.8c-1.9.1-3-1.4-3-3.2zm27.1 0v-8.6h-1.9v5a3.7 3.7 0 0 0-3.1-1.4c-2.8 0-5 2.2-5 5s2.2 5 5 5c1.2.1 2.4-.5 3.1-1.4v1.2h1.9v-4.8zm-7.8 0c.1-1.7 1.5-2.9 3.2-2.8s2.9 1.5 2.8 3.2c-.1 1.6-1.4 2.8-3 2.8s-3-1.2-3-2.9v-.3z" class="st1"/><path id="path12" fill="#ff5f00" d="M66.8 15.1h34.7v56.6H66.8V15.1z"/><path id="path14" fill="#eb001b" d="M70.4 43.4c0-11 5-21.5 13.7-28.3a36 36 0 1 0 0 56.6 36 36 0 0 1-13.7-28.3z"/><path id="path16" fill="#f79e1b" d="M138.9 65.7v-1.2h.5v-.2h-1.2v.2h.5v1.2h.2zm2.4 0v-1.4h-.4l-.4 1-.4-1h-.4v1.4h.3v-1.1l.4.9h.3l.4-.9v1.1h.2zm1.1-22.3a36 36 0 0 1-58.2 28.3 36.1 36.1 0 0 0 0-56.6 36 36 0 0 1 58.2 28.3z"/><path d="M215.6 23.9 193.3 77h-14.5l-10.9-42.4c-.7-2.6-1.2-3.6-3.3-4.7a55.6 55.6 0 0 0-13.6-4.5l.3-1.5h23.4c3 0 5.7 2 6.3 5.4l5.8 30.7 14.3-36.2h14.5v.1zm56.9 35.7c.1-14-19.4-14.8-19.2-21 0-1.9 1.9-3.9 5.8-4.4 2-.3 7.4-.5 13.6 2.4l2.4-11.3a37 37 0 0 0-12.9-2.4c-13.6 0-23.1 7.2-23.2 17.6-.1 7.6 6.8 11.9 12 14.5 5.4 2.6 7.1 4.3 7.1 6.6 0 3.6-4.3 5.1-8.2 5.2-6.9.1-10.9-1.9-14.1-3.4L233.3 75c3.2 1.5 9.1 2.8 15.3 2.8 14.4 0 23.8-7.1 23.9-18.2M308.3 77H321l-11-53.1h-11.7a6.3 6.3 0 0 0-5.9 3.9L271.8 77h14.4l2.9-7.9h17.6l1.6 7.9zM293 58.2l7.2-19.9 4.2 19.9H293zm-57.8-34.3L223.8 77h-13.7l11.4-53.1h13.7z" class="st1"/></svg>