<?xml version="1.0" encoding="UTF-8"?><svg id="a" xmlns="http://www.w3.org/2000/svg" viewBox="0 0 220 100.02"><path d="M12.32,4.58s.07-.08.1-.13c-.04.04-.08.08-.1.13Z"/><path d="M131.37,11.57c-.08-.12-.16-.19-.22-.22.1.09.18.17.22.22Z"/><path d="M175.74,31.16c.06-.14.1-.33.1-.55-.04.17-.09.35-.1.53,0,0,0,.02,0,.02Z"/><path d="M204.07,10.34c-.04.11-.05.21-.04.3,0-.1.02-.2.04-.3Z"/><path d="M204.38,14.39c-.15.16-.25.36-.25.59.07-.23.15-.42.25-.59Z"/><path d="M219.6,27.96c-.09-.31-.22-.61-.41-.89-.44-.67-1.06-1.34-1.62-1.89-.49-.48-1.59-1.43-1.46-2.23.27,0,.6.5.77.68,0-.47-.45-.8-.48-1.26.53-.07.66.37.75.8.11.53.21,1.15.55,1.59.14-.38-.14-1.21-.24-1.61-.16-.66-.82-1.39-.71-2.07.31-.03.44.57.57.77,0-.78-.94-1.75-.57-2.52.15.17.28.37.42.57,0-.37-.28-.88-.39-1.25-.09-.32-.09-.67-.13-.99-.05-.43-.21-.82-.27-1.24-.04-.32-.03-.67-.02-1,.2.15.32.5.42.73.06-.75-.42-1.46-.35-2.23.18.15.2.47.44.55.05-.25-.15-.54-.22-.77-.09-.3-.15-.6-.22-.91-.07-.32-.22-.82-.1-1.14.21.04.33.34.54.41.02-.35-.41-.99-.52-1.37-.14-.46-.24-.87-.21-1.35.11.03.19.13.25.25.03-.23-.14-.5-.2-.74-.07-.31-.08-.63-.14-.94-.06-.29-.02-.57-.04-.85-.03-.39-.25-.71-.39-1.06-.14-.33-.21-.67-.32-1-.12-.34-.14-.66-.38-.96-.14-.17-.34-.31-.49-.49-.19-.23-.27-.5-.56-.61-.25-.09-.55.02-.81-.1-.1-.05-.22-.17-.32-.23-.15-.1-.36-.13-.49-.22-.15-.11-.15-.23-.36-.3-.16-.05-.27,0-.42.03-.52.1-1.11.04-1.62.18-.29.08-.55.21-.81.32-.29.12-.45.31-.68.52-.26.24-.59.39-.85.62-.36.33-.55.97-.72,1.43-.23.66-.3,1.22-.74,1.8-.47.62-1.06,1.13-1.62,1.65.44-.25.72-.74,1.17-.93.18.35-.61,1.03-.81,1.26-.33.37-.6.88-.71,1.39.15-.42.61-.91.93-.99.03.3-.07.52-.16.8-.13.39-.17.85-.4,1.21-.26.42-1.08.91-1.03,1.46.34-.18.55-.69.81-.97.18-.2.55-.86.87-.78.04.91-.46,1.57-1.16,2.11-.35.27-1.05.42-1.01.96.15-.35.59-.42.9-.55.48-.2.8-.57,1.17-.91.36.26.02.86-.19,1.11-.18.22-.32.4-.44.6.13-.14.31-.23.5-.27-.1.3-.27.56-.26.9.12-.16.35-.45.58-.41.02.3-.04.35-.2.58-.1.14-.27.38-.18.58.18.37.73.35.96.68-.21.11-.24.34-.42.47-.15.11-.23.08-.42.06-.31-.03-.63-.06-.94-.06-.62,0-1.12.37-1.47.87-.38.56-.75,1.03-.98,1.69-.1.29-.24.56-.38.84-.24-.6-.51-1.24-.48-1.81.26.08.25.43.46.6-.01-.86-.65-1.63-.65-2.51.18.15.31.46.45.65,0-.66-.49-1.36-.56-2.02.67-.2.7,1.01.73,1.44.3-.55.14-1.22-.2-1.73-.17-.26-.44-.44-.57-.72-.12-.27-.1-.64-.08-.94.28.11.48.74.57.95,0-.7-.38-1.17-.49-1.82.11.11.22.27.37.33.02.12.08.19.11.28.09-.63-.55-1.04-.45-1.65.63.02.76,1.31.76,1.81,0-.26.16-.41.15-.69,0-.23-.11-.5-.2-.7-.27-.57-.39-.79-.42-1.45-.57-.02-.56-1.06-.45-1.54.24.05.3.35.37.56.09-.52-.27-.64-.42-1.06-.11-.29.02-.69-.03-1-.1-.7-.36-1.3-.59-1.95-.11-.3-.17-.69-.21-1-.09-.66-.02-1.2-.4-1.78-.35-.52-.74-.9-1.3-1.08-.59-.19-.9.12-1.36.48-.31-.96-1.04-1.12-1.81-.91-.38.11-.71.23-1.11.3-.81.16-1.35.8-2.07,1.13-.64.29-1.44.5-1.72,1.27.23-.04.45-.06.68-.11-.3.48-.93.66-1.15,1.27.16.01.31-.07.45-.14-.09.28-1.03,1.19-1.34,1.19-.01.06-.01.13,0,.19.12.06.27.07.41.06-.14.56-.8.89-.99,1.47.18-.16.39-.23.61-.27-.13.24-.41.41-.57.67-.18.27-.24.56-.33.86.71-.39.65.23.3.7-.17.24-.91.82-.85,1.07.13.02.24.06.37.05-.03.3-.59.43-.84.42.33.39,1.04.13,1.41-.09.04.59.08,1.3-.06,1.86-.18.73-.55,1.26-.5,2.06.18-.35.32-.8.45-1.19.16-.46.28-.85.39-1.31.1.68.04,1.38.04,2.06,0,.61-.28,1.05-.49,1.61.08.03.15.11.22.13-.22.13-.5.2-.72.29.05-.02.35.12.43.13-.08.29-.17.56-.32.78-.12-.07-.23-.15-.36-.23-.71-.49-1.53-.83-2.27-1.28-.73-.44-1.46-.78-2.22-1.2-.73-.4-1.52-.67-2.29-1.04-.73-.35-1.42-.65-2.16-.93-.52-.19-1.22-.36-1.48-.91-.21-.44-.45-1.33-.38-1.81.61-.15.77.8,1.04,1.05.21-.4-.21-.62-.32-.92.25,0,.52.16.71.28.03-.54-1.05-.53-1.13-1.14.2.04.41.11.63.07-.12-.3-.62-.33-.79-.64-.18-.33.03-.79-.05-1.14-.15-.64-1.45-.54-1.27-1.39.17-.04.35-.03.47.11-.2-.23-.54-.48-.68-.71.17-.11.38-.11.54,0-.37-.35-1.02-.49-.86-1.06.09-.29.31-.2.1-.55-.13-.22-.46-.3-.68-.37-.64-.19-.63.31-1.2.25-.45-.04-.88-.18-1.32-.25-.49-.07-1.16-.3-1.64-.18-.48.12-.84.6-1.22.85-.26.17-.31.31-.49.54-.24.33-.26.3-.67.26-.36-.04-.43,0-.72.14-.24.11-.47.24-.68,0-.02.17.04.33.16.45-.17.02-.37-.01-.53-.04.04.12.17.22.29.28-.16-.02-.21.06-.33.1.05.15.21.26.34.33.04.02-.84.36-.97.37-.37,0-.82.04-1.2.02-.34-.02-.64-.24-.93-.34-.67-.22-1.4-.4-2.08-.57-.84-.21-1.66-.51-2.5-.71-.72-.17-1.51.08-2.25.12-.5.02-1.05-.04-1.49.13-.79.31-.79,1.44-.79,2.14,0,.95-.08,2.07.11,3,.06.3.12.6.17.89-.07-.12-.15-.23-.22-.34-.12-.17-.2-.35-.28-.53-.13-.31-.24-.62-.43-.91-.32-.49-.74-1.04-.84-1.63.25-.12.64.09.69.36-.03-.26-.09-.58-.26-.8-.16-.22-.45-.32-.58-.57.19-.08.38-.03.57-.01-.1-.37-.53-.66-.73-.97-.22-.34-.28-.71-.36-1.1-.07-.35-.29-.52-.41-.84-.19-.51-.23-1.02-.53-1.49-.29-.46-.7-.84-1.06-1.24-.37-.42-.88-.71-1.39-.88-.53-.18-1-.22-1.57-.28-.32-.03-.59-.04-.87.11-.28.15-.3.4-.51.62-.4-.42-.9-.03-1.35-.08-.23-.03-.37-.19-.58-.3-.25-.13-.89-.35-1.09-.11.37-.03.87.3,1.06.59-.02-.04-.98.6-1.09.66-.4.22-.79-.02-1.17-.17-.48-.19-.98-.33-1.48-.46-.61-.16-1.25-.35-1.86-.44-.66-.1-1.31-.19-1.96-.28-.31-.05-.6-.08-.91-.15-.27-.06-.54-.22-.84-.18-2.22.27-1.64,3.31-1.64,4.78,0,1.65.03,3.28.26,4.87.28,1.91.92,3.77,1.24,5.68.06.38.14.75.23,1.13.01.05.03.1.05.16-.37-.42-.73-.83-1.06-1.26.17.02.31-.03.47.04-.57-.53-1.65-1.19-1.49-2.13.07.05.21.12.26.17.05.11.11.19.17.27-.03-.84-.61-1.26-1.09-1.86-.31-.39-.22-.73,0-.62-.4-.38-1.07-.99-.64-1.23.07.07.18.12.22.16.02-.4-.76-1.11-1.01-1.38-.29-.31-.72-.52-1.02-.84.08.02.17.02.25.12.04-.08.15-.12.18-.25.36-.08.73.35.91.67-.08-.16-.13-.32-.12-.51.4.07.92.71,1.01,1.1,0-.4-.14-.77-.34-1.11-.21-.36-.76-.66-.78-1.06.47-.02.85.41,1.39.32-.78-.63-1.6-.88-2.06-1.85-.7-1.49-2.58-2.88-4.17-3.22-.98-.21-1.67-.09-2.66.06-.41.06-.86.2-1.18.46-.46.36-.42.72-.69,1.18-.38.65-1.08.61-1.57,1.01.14.15.32.25.51.29-.14.39-.46.62-.73.94-.2.24-.32.49-.46.77-.17-.45-.48-.83-1-1.12-.82-.45-1.76-.64-2.65-.98-.78-.3-1.62-.67-2.37-1-.81-.36-1.61-.8-2.43-1.15-.6-.25-1.26-.35-1.86-.58-.33-.12-.54-.34-.84-.48-.41-.19-.88-.14-1.31-.25-.48-.12-.95-.35-1.44-.45-.6-.12-.44-.42-.88-.71-.29-.19-1.02-.15-1.31,0-.63.34-1.11,1.24-1.45,1.84-.03.04-.26.32-.26.32-.06.25.07.3.05.53,0,.09-.1.22-.1.29,0,.1-.16.11-.13.27.01.08.17.12.18.2.03.13.18.17.21.29.03.12-.13.13-.12.22.02.18.1.45.1.61,0,.64-.94,1.32-1.46,1.6-.24.13-.55.17-.78.34-.15.11-.29.49-.34.52.2-.13.44-.2.65-.09-.19.26-.37.53-.64.72-.23.16-.63.14-.72.49.2.01.4,0,.59.02-.3.33-.83.54-.92,1.03.28-.12.54-.36.87-.32.05.91-.75.83-.99,1.57.17-.35.62-.3.93-.19.04.18,0,.59-.17.7-.27.18-.36-.1-.6-.14-.47-.09-.78.11-1.21.31-.38.17-.84.36-1.09.69-.26.34-.28.78-.78.87,0,.07,0,.13,0,.2.58.14.72-.88,1.11-1.19.39-.32,1.23-.67,1.69-.33-.02.76-1.27.46-1.47,1.14.32-.16,1.02-.29,1.14.11-.44-.02-1.45.17-1.37.79.1-.43.93-.66,1.36-.44-.08.52-1.49.93-1.96,1.08-.87.28-1.74.71-1.49,1.82.11-.69.5-1.25,1.16-1.54.49-.22,1.58-.7,2.09-.53.02.67-1.81.9-2.14,1.42.28-.07,2.32-.96,1.47.05-.45.53-2.03.22-1.97,1.21.51-.61,2.43-.98,2.17.25-.09.42-.44.82-.78.87-.96.12-1.95-.32-2.76.45-.39.37-.67,1.07-.92,1.54-.46.85-.87,1.73-1.29,2.61,0-.27-.01-.54-.02-.81-.04-.79-.31-1.61-.45-2.39-.16-.85-.33-1.72-.61-2.54-.19-.56-.41-1.25-1.01-1.46-.47-.16-.99-.36-1.5-.33-.34.02-.68.07-1.02.1-.21.02-.58.2-.77.18-.39-.04-.13-1.36-.13-1.65,0-.39-.04-.71-.13-1.09-.07-.34-.27-.8-.13-1.13.35.22.66.6,1,.86.38.29.76.54,1.19.76.39.21.82.37,1.26.47.41.09,1.2.26,1.54-.04-.16-.11-.4-.16-.59-.23.22,0,.64.1.75-.12-.24,0-.47-.17-.66-.27.22-.02.44,0,.63-.1-.23-.06-.44-.17-.67-.21-.22-.04-.38,0-.55-.16.22-.08.48-.04.69-.15-.41-.39-1.22-.57-1.73-.85-.58-.32-1.11-.65-1.63-1.04.45-.06.92.34,1.36.39.31.04.91.21,1.11,0-.2.03-.36-.04-.54-.14.13-.09.46-.05.52-.22-.22-.04-.67-.19-.3-.4-.88-.05-1.69-.32-2.55-.47-.76-.13-.94-.77-1.12-1.42-.2-.73-.42-1.42-.65-2.15-.21-.66-.48-1.24-.84-1.83-.69-1.13-1.38-2.27-2.43-3.07-.59-.45-1.47-.83-2.19-.93-.39-.06-.77.19-1.07.13-.21-.03-.3-.11-.54-.07-.93.18-1.99.87-2.62,1.57-.49.55-1.04,1.62-1.78,1.73.2,0,.4,0,.6,0-.1.19-.27.44-.43.62-.16.18-.52.31-.56.54.12,0,.24,0,.36,0-.15.26-.51.15-.7.39.09.12.41.08.44.2.02.07-.36.4-.41.47-.13.15-.22.33-.39.43-.19.11-.34.07-.53.15.1.21.48.21.69.2-.05.17-.29.41-.41.56-.21.27-.23.23-.55.24.09.2.42.26.63.27-.2.18-.58.09-.74.29.15.13.43.04.54.13.22.18-.08.31-.23.47-.17.18-.62.77-.58,1.02.11-.07.23-.1.36-.12-.02.45-.59,1.13-.92,1.42.23.04.64-.05.82-.18-.02.17-.14.27-.2.42-.06.16-.03.28-.06.43-.07.33-.3.52-.52.77.14.01.28-.05.38-.1.04.23-.06.47-.09.69.33-.03.57-.5.96-.56-.02.31-.22.56-.29.86.11-.07.23-.14.36-.16,0,.2-.11.46-.16.66.05,0,.11.02.16.01-.08.54-.59.86-.92,1.22.26.04.54-.08.76-.19-.17.09-.3.67-.43.85-.23.32-.56.56-.77.91-.4-.42-.8-.84-1.21-1.26.28-.33.65.14.84.37-.32-.67-1.13-.99-1.26-1.76.27.05.64.28.79.52-.05-.65-.48-.94-.96-1.27-.47-.33-.49-.57-.69-1.08.44.01.68.5,1.06.67-.37-.63-.88-.8-1.39-1.2-.62-.49.15-.64.48-.34-.18-.44-.83-.76-.74-1.28.6.06.98.77,1.27,1.22.06-.64-.26-1.12-.79-1.46-.25-.16-1.31-.39-1.18-.84.17-.6,1.27.27,1.49.48.42.41.88,1.07,1.02,1.61.07-.73-.54-2.17-1.24-2.51-.58-.29-1.3,0-1.82-.22-.4-.17-.25-.55-.27-.92-.08-1.62-.8-2.25-1.73-3.49-.46-.62-1.2-1.17-1.97-1.34-.58-.13-1.26-.05-1.82.04-.09.01-.57-.23-.81-.21-.41.03-.82.17-1.21.3-.93.29-1.62.95-2.39,1.53-.41.31-.88.73-1.2,1.17-.38.53-.61,1.03-.84,1.62-.27.67-.69.83-1.18,1.23.14,0,.72-.08.8.02.16.17-.14.6-.27.75-.21.23-.42.22-.58.54-.13.25-.16.58-.16.84.08-.38.3-.65.68-.68.03.3.02.53-.11.8-.05.11-.05.25-.13.34-.08.09-.28,0-.34.14-.24.61.73.21,1.12.28-.23.28-.86.41-.96.68.21.08.44.15.63.07-.11.06-.23.2-.35.26.21.17.5.17.68.33-.2.07-.49.39-.6.53-.21.25-.39.49-.35.86.13-.26.45-.38.69-.45-.14.18-.24.39-.21.62.33-.13.66-.65.94-.91.32-.3.75-.43,1.19-.42.02.46.33.77.41,1.19.08.42-.24.87-.02,1.28.33.61,1.58.52,2.09.22.09.6.58,1.22.32,1.87-.95.06-1.87.11-2.57.87-.4.44-.49.98-.43,1.56.14,1.41-.94,2.2-2,2.85-.42.26-.81.58-1.22.86-.78.53-1.19,1.01-1.29,1.99-.09.94.02,1.72.71,2.36.28.26.57.55.86.81.28.24.85.47,1.01.75.34.57-.03,1.49,0,2.1.02.43.09.88.11,1.29.06.93.19,1.87.32,2.8.12.86.16,1.72.16,2.63,0,.72-.44,1.3-.74,1.92-.33.66-.48,1.31-.86,1.97-.23.4-.62.54-.82.91-.2.37-.14.79-.36,1.18-.25.44-.41.53-.92.6-.11.38-.1.63-.38.91-.33.32-.43.24-.61.7-.11.28-.17.55-.19.82-.28-.69-.55-1.37-.9-2.04-.26-.49-.57-.97-.8-1.49-.21-.48-.16-.86-.24-1.37-.14-.93-.59-1.83-.74-2.79-.05-.34-.07-1.23-.51-1.2-.02-.54.12-.95.17-1.46.53.04.57.52,1.19.18.37-.21.82-.77,1.03-1.15.21-.38.21-.89.35-1.3.84-2.47.22-5.4.22-7.98v-3.37c0-1.09.15-1.92-.68-2.66,0-.02,0-.03,0-.05-.65-.29-1.17-.55-1.93-.64-.7-.08-1.48-.01-2.16-.17-.55-.12-1.12-.52-1.25-1.14-.04-.2,0-.95.11-1.08.36-.41.44.12.57.44,0-.51-.25-.85-.26-1.3.2.06.27.02.42.17.06-.86-.58-.89.07-1.7.37-.47.57-.9.68-1.48.05-.25-.01-.6.06-.85.07-.26.23-.35.36-.61.25-.54-.03-1.16.05-1.71.21.09.18-.05.29.21.09-.37.08-.81.11-1.24.05-.01.09.03.11.03.26-.03-.48-1.73-.56-1.86-.31-.52-.68-.92-1.19-1.26-1.11-.75-2.45-1.04-3.66-1.56-.88-.37-1.78-.02-2.63-.23-1.02-.26-1.62-.25-2.44.44-.59.5-.96.98-1.35,1.65-.21.36-.35.74-.57,1.08-.17.26-.54.54-.57.85.17-.09.2.01.34-.2-.07.8-.63,1.56-.97,2.25.14-.08.27-.11.4-.26-.15.8-.67,1.4-.95,2.14.2-.1.45-.27.65-.39-.28.64-.85,1.44-.95,2.09.1-.06.34-.14.44-.21.02.91-.72,1.31-1.12,1.98.22.04.48.01.67-.04.07,1.18-1.7,1.39-1.8,2.32.34-.03.61-.43.9-.6.29-.17.61-.3.94-.22.16.81-.21,3.01-1.18,3.22-.28.06-.49.02-.71.06.02-.39.03-.77.03-1.17,0-1.12-.17-2.42-.81-3.37-.27-.4-.75-.63-1.16-.8-.2-.09-.36-.19-.58-.25-.22-.06-.48-.02-.7-.1,0-.2.04-.38,0-.58-.05-.2-.22-.36-.24-.55.53-.08.96.41,1.33.7-.19-.72-.94-.6-1.34-1,.18-.12.34-.04.51.03-.33-.18-.68-.33-1.06-.34-.03-.23.32-.31.49-.24-.09-.1-.37-.07-.49-.18-.19-.17-.14-.44-.03-.64.24-.03.49.21.57.42.06-.46-.33-.82-.51-1.2-.09-.19-.4-1.2-.05-1.1.24.07.54.83.64,1.05.16.31.5,1.08.97.98-.57-.3-.73-.86-.89-1.43-.08-.27-.17-.53-.36-.75-.17-.19-.37-.3-.46-.55.39-.2.7.48.87.74-.08-.12-.05-.35-.15-.49-.11-.17-.29-.3-.43-.44-.33-.32-.41-.67-.54-1.09-.04-.14,0-.29-.02-.44,0-.08-.13-.26-.03-.33.11-.08.26.11.3.18.09.14.2.54.24.71.05.2-.01.49.1.65.28-.26.02-.88-.08-1.15-.1-.23-.18-.47-.37-.64-.18-.17-.37-.23-.49-.45.84-.39,1.05.98,1.2,1.46.24-.26.05-.94-.13-1.22-.32-.5-1.1-.57-1.04-1.22.47-.04.68.15.91.52.1.16.41.69.62.38-.43-.06-.43-.64-.59-.95-.12-.23-.24-.37-.48-.47-.23-.1-.56-.01-.74-.2-.14-.15-.13-.48-.12-.67.23-.02.25.23.42.3-.14-.52-.85-.62-1.03-1.07.09-.02.19-.05.29-.03-.22-.19-.43-.27-.67-.44-.23-.16-.41-.38-.62-.55-.21-.17-.49-.16-.7-.33-.21-.17-.35-.42-.59-.55-.43-.23-1.07-.18-1.56-.19-1.14-.02-1.91.66-2.89,1.1-.24.11-.49.12-.76.14.72,0-.25.74-.49.88-.25.15-.57.28-.79.47-.2.17-.31.42-.46.62.21-.21.63-.39.88-.35-.11.22-.39.3-.58.45-.17.14-.29.32-.45.46-.18.16-.84.71-.84.19-.1.08-.12.23-.14.36.29.14.62.05.91-.02.02,0-.31.42-.35.46-.18.17-.26.25-.33.48-.17.56-.36,1.2-.36,1.79,0,.42-.13.64-.37.98-.25.35-.28.61-.4,1,.05-.36.34-.57.61-.76-.1.3-.25.54-.31.87-.06.3-.12.61-.27.88-.23.43-.63.87-.95,1.22.37-.01.81-.59.97-.88.05.69-.09,1.18-.57,1.68-.47.49-.44,1.15-.44,1.73-.02-.49.22-.92.51-1.29.29-.36.66-.62.81-1.07,0,.3.04.63-.04.91-.1.34-.38.6-.51.93-.13.34-.22.68-.56.86-.17.09-.46.03-.58.18.31.19.62.1.94-.06.31-.15.5-.76.77-.82.54-.12.05.92-.06,1.1-.27.47-.37.91-.37,1.47.06-.46.37-.99.76-1.22.2.27,0,.56.07.86.04.2.2.32.3.49.15.27.07.46.06.76-.01.4.45.9.26,1.26-.15.29-.71.65-.68,1.01.2.05.3-.12.45-.21.03.32.17.42.43.55.38.19.26.22.14.64-.14.52.08,1.06-.24,1.53-.24.34-.82.53-1.19.77-.27.18-.55.35-.82.54-.23.16-.37.44-.59.58-.14.09-.27.07-.42.12-.07.21.07.31.06.49-.02.28-.21.5-.23.8-.03.41,0,.83.19,1.2.24.47.58.88.93,1.26.18.2.34.41.49.62.15.2.35.34.47.54.26.44.12.98.11,1.46,0,.59-.04,1.19-.18,1.76-.11.42-.27.73-.75.68-.48-.05-1.1-.19-1.55-.35-.26-.09-.46-.15-.77-.12-.27.03-.39.19-.64.22-.27.03-.43-.03-.67.13-.25.17-.25.3-.59.3-.22,0-.54-.11-.74.06-.2.18-.13.52-.37.67-.21.13-.23-.03-.37.22-.08.15-.05.33-.08.49-.13.59-.76.3-1.13.53-.37.23-.48.75-.62,1.13-.17.47.37,1.09.79,1.13.01-.05,0-.1,0-.14-.05-.02-.09-.06-.15-.07.4-.22.02-.44.1-.79.05-.03.09-.03.14-.03.13.27.58.61.93.46.08-.04.15-.2.19-.22.17-.07.05,0,.2.04.05.01.13.09.19.11.09.03.21.03.31.03.18,0,.32.01.49-.12.13-.1.16-.28.3-.35.13-.07.3-.02.35.22.02.12-.1.2-.09.3,0,.05.1.15.12.21.12.35.69.33.61.81-.04.27-.32.53-.45.77-.18.32-.33.66-.51.98-1.04,1.83-1.74,3.99-2.07,6.08-.09.59-.12,1.16-.06,1.74.06.65-.16,1.31-.19,1.97-.04.83-.05,1.64-.03,2.46.01.5-.05,1,0,1.5.07.88.23,1.74.35,2.62.16,1.18.39,2.33.63,3.49.17.79.21,1.58.25,2.39.06,1.3-.09,2.59-.09,3.91,0,.76-.34,1.58-.55,2.31-.24.86-.5,1.72-.59,2.61-.15,1.44-.43,2.85-.43,4.31,0,1.33-.05,2.64-.09,3.96-.02.46-.04.92-.06,1.38-.04.82-.05,1.63-.09,2.44-.03.7.07,1.39.03,2.08-.03.58-.12,1.08-.25,1.62-.12.48-.26,1.12.1,1.51,0,0-.5,1.41-.54,1.54-.18.54-.25,1.11-.32,1.68-.05.41-.11,1.01-.27,1.38-.2.45-.79.69-1.14,1.04-.17.17-.32.3-.43.5-.17.31-.08.38.02.62.03.07.1.12.15.18-.26.06-.39.26-.13.4.17.09.5.06.7.1.46.1.92.12,1.39.1.48-.02.96.07,1.44.02.65-.06,1.63.06,1.72-.86.15.03.27.13.42.15.18-.69.08-1.41.19-2.1.12-.74.38-1.45.73-2.11.23-.42.39-.87.61-1.28.2-.37.61-.83.31-1.25-.15-.21-.33-.1-.51-.19-.22-.11-.13-.29-.25-.49-.09-.17-.24-.2-.34-.34-.11-.16-.14-.4-.15-.58-.03-.47-.14-.95-.12-1.41,0-.22.07-.46.13-.68.1-.44.31-.84.44-1.27.14-.45.19-.93.3-1.39.17-.67.38-1.32.6-1.98.22-.66.43-1.31.68-1.95.22-.57.28-1.13.41-1.71.15-.68.38-1.34.46-2.04.08-.74.15-1.49.18-2.24.03-.76.15-1.49.21-2.25.05-.69.15-1.28.35-1.93.19-.62.44-1.19.54-1.85.18-1.14.17-2.31.28-3.46.05-.49.1-.99.13-1.48.03-.59.23-1.19.23-1.78,0-.6.08-1.15.2-1.75.09-.44.16-.89.24-1.33.16-.91.37-1.78.59-2.66.16-.64.3-1.24.42-1.88.1-.56.06-1.28.79-1.3.03,0,.09-.04.12-.05.03-.01.35.66.38.7.15.23.36.41.52.62.18.23.29.51.43.76,1.03,1.81,2.19,3.54,3.24,5.34.37.63.82,1.21,1.2,1.84.2.32.32.69.51,1.01.22.37.49.69.72,1.05.18.27.3.59.5.85.23.31.53.59.73.93.15.25.24.51.37.77.59,1.17,1.13,2.36,1.7,3.56.61,1.26,1.72,2.25,2.42,3.47.69,1.2.92,2.59,1.38,3.86.17.47.27.97.42,1.44.17.54.52,1.03.89,1.5.08,2.76.41,5.49.55,8.28.05,1.01.21,2.06-.04,3.02-.04.17-.1.48-.24.58-.18.14-.57-.02-.69.11-.29.29.1.99.06,1.3-.05.47-.55,1.78-.91,2.11-.33.3-.61.17-.8.63-.17.42,0,.73.17,1.08.14.3.28.61.5.86.31.36.39.33.98.33.38,0,.95-.11,1.31,0,.56.17.24.45.24.96.45.02,1.03-.15,1.4.06.28-.44.13-1.3.19-1.82.06-.63.02-1.29.06-1.94.04-.63.37-.88.64-1.41.38-.74-.3-1.05-.17-1.77.81.13.19-1.09.04-1.41-.55-1.16-.27-2.02.08-3.21.25-.85.43-1.72.64-2.58.29.36.57.73.85,1.1.43.59.59,1.07.7,1.77.03.2.01.41.06.61.05.19.18.36.19.55,0,.31-.21.45-.31.71-.08.21-.14.58-.12.82.03.24.26.42.28.62.03.27-.61.9-.19,1.04.07-.16.25-.24.37-.36.15-.13.43,1.57.43,1.69.01.64-.2,1.23-.25,1.86-.03.42-.1.77.05,1.17.05.15.06.42.16.55.08.11.33.22.47.27,1,.39,2.34.43,3.38.27.22-.03.41-.08.61-.18.05-.02.12-.05.19-.08.48.22,1.13.28,1.7.31.02.06.05.13.07.19.53.08,1.04.14,1.58.19.17.44-.19.82.24,1.07.27.16.92.06,1.24.05.02-.33,0-.67.02-1.01.26-.01,1.16.14,1.36,0,.25-.19.09-.85.17-1.14.11-.43.23-.68.23-1.2,0-.34.17-1.1-.33-1.03.02-.44.03-.91.05-1.37.09-.08.18-.15.28-.22.02,0,.04,0,.06,0,0-.02.01-.03.02-.05.17-.11.36-.2.56-.26.14.76-.15,1.5-.09,2.25.05.64.16,1.19.13,1.83-.02.44-.06.99.51,1.07.88.13.73-.53.66-1.16-.1-.99-.04-2.05.14-3.04.11-.61.51-1.12.7-1.72.17-.53.2-1.39.15-1.98-.07.03-.23,0-.31.04-.21-.58-.12-1.01-.59-1.5-.25-.27-.81-.51-.93-.88-.17-.56.8-1.94,1.03-2.44.48-1,.92-2.02,1.4-3.03.33-.69.61-1.36.91-2.04.98-2.15,1.54-4.4,1.76-6.77.09-.95.13-1.88.21-2.85.04-.5.29-.8.47-1.24.17-.42.27-.85.38-1.29.19-.75.43-1.47.75-2.2.29-.65.78-1.44.88-2.15.14.4-.15,1.1-.22,1.55-.09.57-.22,1.19-.17,1.77.1,1.18.67,2.44,1.07,3.54.46,1.24.82,2.49,1.11,3.79.63,2.82,1.05,5.68,1.58,8.52.27,1.45.86,3.01.43,4.52-.2.71-.21,1.43-.39,2.14-.39,1.56-.29,3.39-1.71,4.47-.52.4-.68.21-1.18.11-.57-.12-.68.23-.6.8-.68-.09.05,1.97.43,2.26,1.21.9,3.23.95,4.68.6.65-.16.64-.18.75-.8.07-.39.3-.71.5-1.06.21-.38.67-2.02,1-2.05.23.86.24,1.81.28,2.73.02.47-.07,1,.05,1.45.18.63.45.34,1.01.37.08-1.5.02-3,.12-4.51.07-1.08,1.18-1.89,1.12-3-.13,0-.26-.1-.41-.07.01-.9-.86-1.9-1.24-2.68-.23-.46-.38-.9-.48-1.4-.32-1.61-.03-3.32.05-4.94.05-1.01-.05-2-.05-3.01,0-1.98.02-4.09-.47-5.97-.59-2.21-1.82-4.39-1.46-6.77.19-1.28.81-2.47,1.22-3.68,1.19-3.49,2.53-6.91,3.87-10.35.73-1.88,1.7-3.72,1.52-5.79-.04-.43-.12-.89-.37-1.24.66-.5.28-.95-.27-1.26-.44-.25-.92-.63-.92-1.22.24-.01.51-.04.74,0,.23.03.45.21.64.22.32.03.58-.15.82-.38.03,0,.06,0,.09,0-.09.24-.42.45-.39.72.01.11.93.15,1.03.09.24-.13.41-.61.54-.85.22-.16.39.02.34.26-.05.19-.3.47-.38.67-.19.46-.26.91-.39,1.38-.14.5-.41.95-.54,1.45-.2.79-.46,1.58-.64,2.37-.33,1.54-.55,3.09-.69,4.66-.14,1.6-.01,3.25-.01,4.86,0,1.42.26,2.83.24,4.25-.02,1.4-.28,2.75-.5,4.13-.09.59-.18,1.2-.24,1.79-.06.6-.2,1.09-.41,1.66-.17.46-.4,1.11-.36,1.6,0-.1-.32.21-.34.23-.11.17-.13.42-.15.62-.05.43-.02.88,0,1.31.05.92-.18,1.84-.18,2.76,0,.72.03,1.46,0,2.18-.07,1.47-.08,2.97-.07,4.44,0,.68.17,1.39.1,2.07-.05.52-.18,1.03-.23,1.57-.03.27-.07.58-.03.87.03.28.25.4.27.67.01.26-.17.48-.11.77.08.38.14.35-.03.75-.2.48-.04.87-.02,1.34,0,.3-.1.54-.14.83-.05.36-.02.75-.02,1.12,0,.76,0,1.53.16,2.28.12.59.27,1.14.33,1.74.06.65.07,1.09.35,1.64.11.21.12.41.32.58.19.18.48.24.7.4.48.38.71.61,1.33.71.53.09.88.38,1.37.56.2.07.57.19.79.14.34-.08.27-.35.27-.67,0-.46.09-.86.13-1.3.06-.63-.12-1.36-.27-1.97-.07-.27-.15-.47-.26-.73-.23-.52-.44-1.06-.5-1.63-.06-.62-.06-1.11-.36-1.66-.29-.52-.06-1.05,0-1.63.06-.57.15-1.13-.14-1.63-.29-.51-.23-.94-.02-1.5.1-.28.18-.5.2-.8.02-.4-.11-.62-.23-1-.34-1.07.56-1.61.87-2.54.16-.47.19-1.02.26-1.5.11-.76.34-1.51.4-2.26.03-.28.11-.55.14-.83.05-.49.13-.98.17-1.47.07-.79.21-1.58.29-2.36.03-.39-.01-.77.06-1.15.07-.31.12-.62.18-.92.08-.38.08-.38-.12-.66-.18-.27-.05-.34.11-.64.39-.73.56-1.47.86-2.23.21-.53.4-1.08.57-1.63.17-.56.17-1.1.4-1.63.14-.33.27-.66.35-1.01.44-1.95.34-4,.95-5.92.46-1.43.98-2.88,1.33-4.34.28-1.16.24-2.32.31-3.53.19.09.38.52.63.66.3.18.6.19.93.12,1.29-.25,1.4.85,1.8,1.78.24.56.53,1.09.83,1.63.58,1.03,1.18,2.05,1.85,3.01.31.44.67.84.99,1.27.26.34.37.77.65,1.1.28.33.53.65.75,1.05.46.83.78,1.72,1.17,2.58.58,1.28,1.12,2.59,1.71,3.86.82,1.75,2.33,3.13,3.33,4.73-.43.32-.25.6-.05,1,.38.74.67,1.51,1.06,2.27.46.89.88,1.8,1.3,2.72.3.66.54,1.34.84,2.01.26.58.63,1.07.92,1.63.3.61.76,1.14,1.06,1.73.3.59.37,1.22.88,1.7.2.19.51.42.78.65.12.38.24.77.33,1.16-.01.02-.02.04-.03.06-.12.24-.11.48-.08.73.03.26.03.36-.06.59-.09.22-.15.39-.16.63-.03.68.26,1.1.42,1.73.09.35.18.69.27,1.04,0,0,0,.01,0,.02-.04.42-.04.86-.1,1.27-.12.84-.25,1.68-.34,2.53-.06.56-.39,1.54-.09,2.06.34.6,1.88.65,2.47.64.56,0,2.08.09,2.39-.42.15.03.31.05.47.05.18,0,.41,0,.62-.03.14.12.29.23.49.3.5.18,1.31.08,1.72-.27.46-.39.69-1.14,1.24-1.4.08-.36.41-.61.56-.93.17-.36.18-.6.22-.99.07-.69.08-1.55-.09-2.23-.16-.63-.6-1.15-.74-1.8-.15-.71-.3-1.47-.38-2.19-.07-.66.3-1.45.01-2.11-.11-.25-.43-.55-.62-.76-.36-.4-.39-.32-.33-.89.22-2.19.11-4.4.11-6.62,0-1.28-.04-2.54-.11-3.8-.13-2.16-.97-4.19-1.6-6.23-.31-1.01.1-1.66.34-2.65.24-.96.57-2.04.97-2.92.53-1.18.96-2.33,1.46-3.53.37-.88.83-1.7,1.2-2.56.09,0,.19.01.29,0,.05-.18,0-.34-.09-.48.03-.07.05-.13.07-.2.16-.11.22-.32.19-.54.55-1.58,1.01-3.12,1.3-4.79.03-.15.06-.31.09-.47,0,.68.05,1.35.09,1.98.06,1.06.53,1.9.83,2.88.39,1.24,1.01,2.36,1.31,3.64.32,1.34.47,2.71.84,4.03.54,1.92.83,3.95,1.13,5.92.38,2.55-.36,5.15-.22,7.73.05.9.38,1.81.49,2.72.13,1.09.21,2.18.46,3.25.47,1.99,1.55,4.34,1.19,6.43-.09.49-.5.49-.68.9-.22.53.27.7.5,1.07.23.37.27.85.29,1.3.05.92.31,2-.04,2.82-.27.63-.75,1.85-.46,2.52.51-.06,1.17.16,1.73.19.11.28.06.63.07.94.33.04.63.1.94,0,.07-.78.18-1.2.67-1.79-.29.35.55.44.64.45.49.04.93.02,1.45.12.05.38.05.79.13,1.16,1.08.18,1.02-.12,1.07-1.11.99-.05,1.81-.04,1.87-1.25.02-.42-.19-.72-.31-1.17-.11-.4-.14-.85-.2-1.27-.13-.87-.5-1.88-.82-2.74-.36-.99-.19-1.48.01-2.49.12-.58-.03-.69-.16-1.24-.13-.55-.01-1.63.11-2.19.18-.81.51-1.57.71-2.37.46-1.86.8-3.76,1.2-5.64.22-1.03.33-2.22.34-3.27.01-1.09-.05-2.09-.21-3.14-.32-2.03-.28-4.12.1-6.16.14-.77.46-1.5.62-2.26.2-.96.67-1.65,1.02-2.54.36-.92.56-1.9.94-2.81.41-.96.77-1.91,1.13-2.89.66-1.8.12-3.8.9-5.58.09-.2.16-.43.28-.6.04.23.07.43.08.67.22-.21.07-.63.33-.85.59.42.04,1.55.62,2.04.52-.4-.22-1.72-.16-2.31.05.03.22.07.26.1.08-1.42-.77-2.91-2.24-2.99-.16,0-.32-5.48-.35-5.97-.06-1.11.29-2.76,1.12-3.49.05.88.04,1.74.17,2.59.07.46.16.89.23,1.34.18,1.22.39,2.5.63,3.72.2,1.04.38,2.04.66,3.06.5,1.8,1.04,3.41.35,5.24-.18.48-.17.89-.17,1.41,0,.51-.02.79-.13,1.18-.11.43-.1.88-.1,1.35,0,.22.02.46-.05.64-.1.26-.46.24-.31.65-.27.07-.9.48-.77.85.07.21.3.16.55.1-.44,1.05-.88,2.09-1.19,3.19-.23.8-.55,1.56-.74,2.37-.15.67-.48,1.3-.62,1.94-.09.41,0,.84.1,1.24.11.42.25.77.29,1.2.04.34.13.64.22.98.12.45.21.9.35,1.35.24.8.36,1.63.64,2.42.3.81.62,1.65.96,2.44.34.8.59,1.66.94,2.46.36.83.87,1.61,1.17,2.47.28.82.49,1.65.79,2.47.26.72.53,1.44.84,2.14.32.72.75,1.29.88,2.08.13.76.3,1.57.34,2.33.03.67.13,1.16.37,1.78.14.35.16.46-.05.77-.3.46-.49,1.01-.68,1.53-.1.27-.14.58-.28.84-.14.26-.36.4-.41.69-.07.43.17.4.37.62.13.15.03.08.11.29.08.2.07.21.25.37.23.21.44.32.73.28.34-.04.77-.08,1.1-.17.26-.07.52-.26.76-.41.53-.33,1.04-.7,1.53-1.08.2-.16.48-.39.63-.58.18-.26.14-.55.14-.88,0-.63-.01-1.3-.11-1.91-.11-.73-.33-1.51-.22-2.26.06-.43.26-.61.48-.93.04-.05.47-.89.49-.85.27.52.45,1.09.67,1.64.06.14.27.62.38.7.16.12.3.04.52-.05-.19-.73-.67-1.37-.94-2.07-.09-.23-.27-.53-.29-.77-.02-.28.14-.54.15-.84.02-.49.08-1.05-.23-1.45-.2-.26-.81-.91-1.16-.99-.48-.11-1.05.29-1.49.04-.62-.37-.47-1.55-.52-2.14-.11-1.08-.18-2.21-.47-3.25-.11-.38-.25-.74-.32-1.13-.1-.63-.12-1.28-.12-1.93,0-1.49-.62-2.97-1.2-4.29-.33-.76-.8-1.49-1.19-2.21-.28-.51-.43-.72-.23-1.26.19-.51.36-1.02.62-1.5.53-1,1.22-1.92,1.7-2.94.67-1.4,1.66-2.42,2.7-3.54.57-.62,1.01-1.52,1.46-2.23.55-.88,1.08-1.78,1.64-2.66.36-.55.69-1.15.95-1.75.23-.51.7-.51,1.15-.72.15.79.14,1.63.23,2.43.1.97.23,1.93.27,2.91.08,1.61.2,3.21.28,4.82.03.67.04,1.29-.04,1.97-.04.39.09.48.23.83.1.26.04.54.03.81-.01.35.11.53.19.83.07.27,0,.57,0,.85-.03.68.16,1.18.43,1.79.14.32.06.41,0,.76-.06.4,0,.85-.02,1.26-.01.41-.1.8-.14,1.21-.05.45-.1.89-.1,1.36,0,1.02-.1,2.04-.15,3.06-.09,1.91-.41,3.79-.51,5.69-.02.46-.03.92-.07,1.38-.04.43-.25.82-.36,1.23-.11.46-.14.93-.24,1.38-.1.44-.32.83-.46,1.25-.35,1.06-.55,2.15-.9,3.2-.16.49-.37.97-.55,1.46-.15.41-.5.83-.6,1.23-.33-.02-.34.43-.54.62-.16.16-.49.54-.68.64-.26.13-.61-.06-.82.2-.18.22-.03.68.1.89-.46.19-.3.96-.01,1.19.36.29,1.01.22,1.45.29.99.15,2.29.17,3.26-.04.85-.19,1.82-.42,2.02-1.41.02-.12.04-.24.06-.36.02.18.06.35.15.54.13.28.41.44.55.73.27.55-.1,1.66.35,2.07.18.16.62.19.85.23.35.05.73.13,1.06.16.22.02.84.08,1.02.04.39-.07.41-.5.47-.85.12-.76.22-1.34.51-2.04.25-.6,0-1.38-.17-1.99-.18-.68-.61-1.44-.64-2.12-.01-.34.21-.68.26-1.02.06-.38-.02-.7-.05-1.06-.07-.7.28-1.67.55-2.32.35-.84.82-1.63,1.27-2.43.54-.97,1.25-1.84,1.82-2.8.57-.97,1.06-1.99,1.68-2.93.56-.87,1.1-1.73,1.61-2.63.47-.83.87-1.67,1.23-2.55.35-.85.78-1.4,1.39-2.08.77-.86,1.45-1.71,1.79-2.84.18-.6.25-1.25.41-1.83.17-.63.34-1.26.66-1.84.34-.6.77-1.15,1.08-1.76.4-.8.77-1.64,1.21-2.42.45-.8.99-1.58,1.39-2.41.44-.91.77-1.88,1.18-2.8.39-.88.75-1.76,1.14-2.65.32-.74.42-1.29.95-1.89.13-.14.32-.28.4-.48.09-.21.06-.44.22-.59.3-.29.98-.36,1.36-.54.15.41-.1.9-.1,1.31,0,.45-.02.92,0,1.38.02.4.04.81.14,1.2.18.75.48,1.47.66,2.21.22.88.48,1.76.85,2.59.34.76.33,1.5.51,2.29.12.54.28.94.31,1.53.03.59-.02,1.15-.04,1.74-.03.68.05,1.33.2,1.98.1.44.28.85.39,1.28.15.55.36,1.22.6,1.74.17.37.43.73.62,1.1.39.8.66,1.56.81,2.45.15.9.23,1.76.42,2.65.19.89.46,1.75.68,2.63.36,1.46.75,2.9,1.17,4.34.4,1.35.68,2.71,1.14,4.04.14.42.07.66-.01,1.06-.07.35.05.66-.09.98-.13.29-.38.43-.46.76-.07.3-.07.72,0,1.01.18.69.48,1.19.42,1.96-.05.58-.35,1.09-.52,1.64-.18.56-.07,1.01-.12,1.58-.02.27-.16.38-.21.64-.07.3.04.62.13.89.18.58.23,1.16.39,1.73.7.04,1.33.18,2.03.18.34,0,.67.01.97-.09.46-.15.43-.34.43-.8,0-.58.06-1.51.39-1.98.09-.13.25-.16.32-.31.08-.16,0-.33.06-.5.08-.23.33-.43.41-.69.43-1.33-.49-2.62-.79-3.87-.08-.32-.12-.6-.21-.92-.12-.41-.07-.52.08-.93.28-.77.05-1.21-.29-1.88-.59-1.17-.4-2.72-.37-3.98.03-1.25-.09-2.4-.26-3.64-.07-.54-.16-1.04-.18-1.58-.03-.68-.08-1.35-.11-2.02.19.36.38.72.57,1.06.27.49.44,1.02.68,1.52.21.44.51.84.74,1.27.6,1.08,1.2,2.17,1.73,3.3.35.74.78,1.49,1.23,2.16.17.25.54.48.65.75.11.29,0,.84,0,1.15,0,.65.06,1.29.03,1.94-.31.02-.49-.07-.61.26-.08.21-.04.68-.04.91,0,.64.05.95-.24,1.52-.27.53-.42.93-.41,1.55,0,.94-.57,1.36-1.03,2.07-.33.52-.67.95-1.17,1.32-.16.12-.22-.07-.33.18-.07.16.11.27.03.44-.14.28-.54.17-.4.64.08.25.44.46.6.64.23.26.39.4.69.5.78.26,1.42-.03,2.22.01.31.02.86.21,1.12.08.34-.17.38-.66.47-.99.13-.46.33-.91.5-1.35.33-.87.71-1.72,1.21-2.49.52.88,1.02,1.92.85,3.05-.05.32-.13.38-.34.62-.13.15-.24.47-.35.58-.18.17-.57.03-.47.5.05.22.3.3.49.41-.09-.06-.4.2-.41.32,0,.14.15.23.24.31.28.26.79.33,1.15.41.33.07.65.08,1,.08.49,0,.9-.26,1.32-.5.39-.22.93-.38,1.23-.74.35-.42.19-1.34.15-1.88-.11-1.34-.27-2.77-.08-4.14.04-.27.05-.59.12-.86.61-.08,1.46.93,1.85,1.36.61.68,1.02,1.58,1.65,2.27.12-.07.23-.17.33-.28-.3-.49-.69-.92-1.02-1.38-.31-.44-.59-1.02-.86-1.52-.35-.63-.56-1.25-.69-1.94-.12-.64.15-1.58-.07-2.17-.19-.54-.95-.98-1.42-.94-.82.05-1.05-.4-1.69-.84-.23-.15-.43-.2-.64-.45-.33-.41-.53-.9-.71-1.38-.32-.83-.05-1.68.03-2.52.09-.92.27-1.82.38-2.73.09-.78.19-1.55.23-2.35.09-1.78.03-3.52-.42-5.23-.41-1.55-.45-3.15-.46-4.75-.02-1.72-.22-3.44-.07-5.16.06-.72.25-1.41.44-2.11.21-.76.26-1.48.4-2.25.14-.74.36-1.49.45-2.23.04-.35.02-.71.03-1.06.2-.2.38-.51.48-.64.33-.42.65-1.37,1.24-1.43-.02.1-.07.18-.13.27-.46.71-.83,1.49-1.23,2.25-.13.24-.7,1.24-.12,1.2.19-.01.33-.22.46-.35.17-.16.3-.3.44-.5.2-.29.5-.97.81-1.09.02.24-.28.62-.39.84-.13.26-.29.49-.47.71-.18.22-.4.4-.43.68-.04.37.23.47.55.42.08-.17.25-.37.42-.44,0,.19.3.21.46.15.18-.07.24-.28.4-.42.25-.22.58-.31.84-.51.23-.17.29-.44.49-.63.24-.21.31-.09.45-.43.2-.49.61-.83.78-1.3.19-.52.46-.93.52-1.49.06-.55.09-1.16.17-1.72.07-.45.18-1.41.47-1.75.22.45.17,1.15.17,1.65,0,.56.19.96.45,1.43.26.47.53.81.92,1.17.31.29.44.66.69.99.19.25.33.45.55.66.46.43.69.79,1.05,1.3.48.66.95,1.33,1.4,1.99.42.61.66,1.35.98,2,.23.46.53.8.71,1.27.17.46.23.95.36,1.42.16.55.47,1.05.6,1.61.18.72.31,1.46.49,2.18.16.65.06,1.23.1,1.88.03.62.27,1.19.32,1.79.09.88-.47,1.5-.55,2.34-.04.4.03.69-.16,1.04-.17.31-.4.55-.47.9-.07.38-.13.79-.21,1.18-.18.91-.35,1.82-.5,2.74-.3,1.81-.55,3.63-.81,5.44-.07.5-.18,1.16-.39,1.62-.37-.05-.74-.2-1.1-.25-.4-.06-.86-.05-1.24.03-.49.09-.8.3-.99.75-.21.51-.51.9-.82,1.36-.31.45-.68.84-1.1,1.18-.76.6-1.61,1.06-2.36,1.61.1.13.02.47.21.52.12.03.4-.24.49-.32.31-.25.62-.47.97-.67.37-.21.76-.39,1.14-.57.27-.13.79-.48,1.1-.42,0,.16.13.21.16.32.04.14.03.3.04.45.01.3,0,.58-.1.85-.2.56-.54,1.01-.86,1.53-.16.26-.24.56-.42.8-.18.24-.48.38-.65.63-.54.79.06,1.84.5,2.5.29.43.68.78,1,1.19.11.14.19.29.29.43.16.21.35.28.54.46.19.18.35.4.58.55.22.14.44.16.68.02.25-.14.29-.39.35-.62.12-.46.55-.09.83-.41.23-.26.24-.72.37-1.04.17-.44.33-.86.48-1.31.06-.19.27-.61.1-.79-.1-.1-.26.05-.34-.09-.07-.13.13-.31.19-.39.18-.24.35-.39.47-.67.11-.26.13-.37.38-.27,1.08.44,1.58,2.1,1.78,3.12.07.37.1.76.14,1.14.01.13,0,.49.09.58.12.12.36.04.52.09-.01-1.05-.26-2.23-.52-3.24-.2-.8.56-.31.9-.03.37.3.73.67,1.01,1.05.29.39.53.93.69,1.39.09.26.18.53.28.78.24.6.52,1.02,1.12,1.3.44.2,1.13.39,1.62.38.46,0,.91.11,1.36.07.49-.05.97-.11,1.46-.16.29-.03.81,0,.96-.32.06-.14-.01-.32-.01-.47,0-.22.06-.44.06-.67,0-.19,0-.34-.07-.49-.07-.16-.23-.15-.2-.38-.21-.05-.17-.21-.25-.36-.09-.16-.27-.27-.32-.42.04,0,.08,0,.12-.01-.05-.27-.5-.34-.74-.42,0-.38-.12-.42-.42-.62-.23-.15-.54-.41-.79-.51.05.02-.47.31-.55.32-.47-1.07-1.09-2.07-1.43-3.18-.15-.51-.33-1.08-.33-1.62,0-.28.05-.56.03-.85-.01-.28-.12-.51-.16-.78-.19-1.16.11-2.42.16-3.6.02-.47.06-.94.1-1.4.1-.97.12-1.95.25-2.91.08-.63.22-1.26.3-1.89.06-.46.13-.84.31-1.27.5-1.11.92-2.28,1.4-3.41.29-.69.52-1.32.95-1.92.37-.53.79-.98,1.14-1.52.3-.45.79-.76,1.04-1.27.24-.47.37-1.07.35-1.59-.03-.73-.5-1.28-.73-1.94-.27-.75-.53-1.51-.83-2.26-.36-.92-.82-1.82-1.16-2.75-.29-.8-.73-1.57-.98-2.38-.13-.42-.24-.9-.32-1.33-.05-.26,0-.57,0-.83,0-.69.02-1.37-.09-2.05-.22-1.35-.61-2.62-.94-3.92.3-.2-.04-.69-.1-.95-.03-.15-.13-.33-.14-.49-.01-.21.17-.33.14-.52-.04-.2-.21-.08-.32-.23-.07-.1,0-.43,0-.55,0-.37.25-.75.19-1.09-.08,0-.13-.05-.22-.04-.06-.17-.05-.37-.04-.55,0-.08.01-.18,0-.26-.02-.11-.05-.18-.06-.23-.13-.43,0-.69.16-1.06.15-.36.1-.77.13-1.15.12-1.24.27-2.44.61-3.64.29-1.02.85-1.87,1.26-2.83.21-.47.3-.95.52-1.42.21-.45.22-.9.47-1.32.21-.35.54-.53.85-.77.38-.3.66-.68.99-1.03.38-.4.62-.75.8-1.29.13-.39.2-.8.2-1.2.17-.08.28-.24.28-.42,0-.22-.17-.41-.4-.47ZM28.14,63.83c-.02-.5-.14-.95-.21-1.45-.06-.38-.07-.76-.17-1.14-.24-.96-.62-1.86-.84-2.83-.21-.87-.53-1.71-.84-2.54-.5-1.33-1.01-2.68-1.47-4.03-.23-.67-.5-1.33-.74-2-.25-.68-.55-1.2-.55-1.94,0-.66,0-1.32-.15-1.96-.08-.32-.17-.61-.19-.94-.02-.21,0-.25.06-.44.03-.09.12-.22.14-.3.02,0,.03,0,.05-.01,0-.41-.25-.76-.22-1.2.03-.43.02-.8-.05-1.23-.07-.39-.17-.62-.04-.95.09-.22.15-.37.16-.61.03-.47,0-.86.13-1.32.06.01.15-.02.2,0,.03,0-.23-.83-.24-.9-.03-.36.09-.81.18-1.16.2-.84.57-1.64.86-2.45.23-.64.38-1.31.61-1.93.19-.51.59-.66.56-1.26-.03-.63.27-1.21.41-1.81.06-.24.1-.49.13-.74.14,1.36.36,2.72.59,4.05.35,1.98.91,3.9,2.19,5.34.33.37.61.62.55,1.1-.04.37-.37.85-.5,1.2-.33.93-.63,1.84-.87,2.79-.18.71-.8,2.17-.51,2.89.19.48.57.28.57.91.01,1.7-.68,3.49-.91,5.18-.08.59-.17,1.1-.23,1.71-.06.57-.38,1.16-.28,1.75.28.07.51.28.79.35.26.07.6-.03.81.16.46.43.6,1.41.69,2,.27,1.7.51,3.24.14,4.95-.15.69-.17,1.42-.19,2.14-.05-.07-.09-.14-.14-.21-.26-.36-.47-.74-.49-1.19ZM40.15,92.74c-.18-.04-.59-.29-.77-.25-.03,0-.06.02-.08.03-.14-.54-.21-1.08-.34-1.65-.06-.24-.19-.46-.26-.71-.16-.52-.14-1.04-.32-1.56-.18-.52-.1-1.04-.22-1.57-.11-.5-.42-.92-.69-1.35-.28-.45-.32-.81-.47-1.29-.36-1.19-.78-2.35-1.17-3.53-.28-.85-.67-1.66-.91-2.53-.13-.47-.29-.94-.45-1.4,0-.02,0-.05,0-.07.07-.81.28-1.56.29-2.39,0-.83.04-1.68.11-2.51.07-.75.42-1.36.58-2.09.37-1.7-.13-3.51.11-5.24.14-1.03.41-2.12.56-3.16.08-.6-.02-1.2.12-1.79.11-.46.28-.91.4-1.38.2-.8.63-1.66,1.06-2.33.24,2.21,1.17,4.33,1.49,6.58.2,1.42.11,2.86.44,4.27.28,1.21.4,2.44.81,3.61.63,1.78.54,3.65.57,5.51.03,1.92.58,3.74,1.25,5.52.63,1.67.76,3.57.93,5.36-.11.3-.25.6-.45.87-.35.48-.29.66-.42,1.24-.18.79-.49,1.58-.65,2.36-.14.69,0,1.12-.75,1.39-.3.11-.48.13-.8.06ZM48.57,60.07c-.02.43-.03.92-.1,1.34-.08.51-.39.76-.58,1.24-.48,1.21.23,2.71-.13,3.87-.21.66-.47.97-.47,1.72,0,.59.06,1.16.02,1.76-.03.51-.23.82-.38,1.31-.12.39-.17.79-.24,1.18-.12.61-.21,1.21-.33,1.81-.03-.17-.06-.34-.07-.51-.05-.9-.15-1.76-.26-2.67-.08-.75-.19-1.44-.3-2.16-.26-1.8-.09-3.44.07-5.22.18-2.11.77-4.22.8-6.34.01-.97-.29-2.01.74-2.44.44-.18.97-.16,1.42-.28.08-.02.19-.04.31-.07-.14.75-.26,1.51-.33,2.25-.1,1.07-.13,2.13-.18,3.22ZM49.6,51.94c-.05.21-.1.42-.14.64-.04-.4,0-.84-.1-1.25-.19-.73-.51-1.41-.85-2.08.02,0,.04.01.07.02.31.06.68.17.97.11.3-.07.56-.39.85-.48.15.9-.57,2.19-.8,3.05ZM51.12,47.41c-.36.29-.79-.02-1.29-.03-.27,0,.42-2.1,1.33-1.44.03.23.2.35.43.32,0,0-.34,1.04-.47,1.14ZM70.57,15.55c-.03.07,0,.2-.02.29.25-.06.28-.5.56-.58-.03.12-.04.28-.03.41.16-.37.26-.88.5-1.19.22.17.15.61.17.86.02-.09.08-.22.09-.29.02.15-.15.92.14.9.22-.02.28-.65.46-.77.04.41.03,1.1-.13,1.49.14-.25.46-.6.66-.79.14.48.15.91-.32,1.11-.63.26-1.19.61-1.77.92-.25.13-.55.21-.8.35-.25.14-.52.36-.76.6-.24-.45-.61-.88-.79-1.28.34-.07.61.2.79.45-.16-.28-.35-.52-.54-.77.1-.15.21-.29.32-.43.05.05.09.1.14.15,0,.21,0,.41,0,.62.1-.11.2-.24.29-.36.14.1.3.16.47.16-.12-.11-.23-.22-.34-.33.35-.48.64-1.01.9-1.51ZM68.2,16.16c.22-.05.42.12.62.34-.08.21-.1.42-.13.63-.04-.06-.08-.11-.13-.17-.14-.18-.75-.73-.36-.81ZM64.92,37.93c-.35-.24-.42-.66-.79-.86-.46-.25-.68-.08-.87-.64-.29-.83-.25-1.6-.11-2.47.11-.71.13-1.79.7-2.32.43.19.73.92,1.28.91.1-.43-.65-1.11-1-1.24-.67-.74.58-2.84.63-3.7.03-.43-.07-.92.15-1.29.37-.64.45-.24.5.27.04.41.09.74.12,1.17.05.01.09,0,.14.02-.12.47-.44.89-.36,1.44.04-.02.09-.06.14-.08.01.21.01.44,0,.66.04-.19.14-.35.27-.47.04,0,.26,0,.32.01-.19.84-.16,1.68-.09,2.61.22-.48.48-.96.53-1.49.04-.43-.04-1.25.53-1.34.02.3,0,.61.02.9.08-.3.18-.68.27-1.01.71.46-.11,2.48.95,2.62-.36-.54-.32-.89-.32-1.49,0-.51-.24-.94-.15-1.44.21.06.3.28.35.47.06-.35-.15-.65-.08-1.01.32.53,1.21.64,1.17,1.38.07-.99-.52-1-.97-1.65-.2-.29-.75-2-.22-2.2.23-.08,1.26,1.24,1.52,1.43.54.39,1.03.85,1.6,1.29.07.05.16.12.26.18.02.24-.06.51-.08.74-.04.38-.1.78-.13,1.17-.02.35,0,.63.12.97.02.05.04.09.06.14-.16.45-.33.89-.52,1.33-.44.98-.89,1.96-1.47,2.86-.18.27-.34.55-.5.82-.17.04-.37.03-.56.05-.59.07-.81.55-1.02,1.06-.09.21-.21.58-.18.8.02.11.06.15.1.2-.05,0-.11,0-.18,0-.69-.01-1.58-.42-2.15-.8ZM101.08,79.64c.42.67.45,1.64.59,2.42.08.45.26.89.39,1.33.28.93.71,2.04.66,3.03-.01.31-.2.56-.17.88.03.28.24.5.32.78.23.81.33,1.72.34,2.58,0,.42-.03.83-.07,1.23-.01-.07-.03-.15-.04-.22-.11-.57-.22-1.12-.34-1.69-.11-.54-.1-1.14-.27-1.67-.1-.31-.37-.74-.33-1.06.02-.19.15-.29.13-.5-.03-.28-.45-.53-.56-.84-.14-.39-.21-.79-.31-1.19-.1-.39-.22-.77-.35-1.15-.06-1.31-.1-2.63,0-3.93ZM91.68,27.38c.25-.32.78-1.13,1.11-1.26.04.78,0,1.49-.3,2.2-.21.51-1.01,1.35-.58,1.91.13-.65.62-1.15.73-1.81.18.4.02,1.02.02,1.45-.02.67-.09,1.34-.02,2.01.06-.5.17-1.37.44-1.76.3.33.15.9.26,1.27.32-.79-.05-1.62.03-2.43.2.34.41.72.63,1.05.06-.96.08-1.8.06-2.79.2.65.8,1.09,1.15,1.65.41.68.3,1.76.51,2.55.26,1,.62,1.98.77,3.01.23,1.54-1.03,2.86-1.21,4.39-.37-.05-.3.46-.55.63-.33.22-1.13.28-1.53.41-.34.11-.74.3-1.09.23.05-.71.05-1.44.09-2.15.04-.82-.09-1.6-.19-2.4-.1-.73-.08-1.48-.2-2.21-.11-.71-.46-1.34-.69-2.02-.23-.67-.14-1.4-.27-2.1-.02-.09-.03-.18-.04-.27.27-.51.55-1.14.88-1.56ZM92.28,46.57v.04s0-.03,0-.04ZM92.43,45.05c-.09-.25-.22-.5-.26-.75-.07-.55,0-1.06.02-1.6.38-.05.74-.33,1.1,0-.52.3-.74,1.56-.86,2.36ZM89.15,46.72c-.19.38-.34.69-.39,1.13-.05.34-.22.98-.15,1.3-.16-.74-.44-1.5-.7-2.22-.13-.34-.33-.67-.51-.99-.2-.35-.2-.76-.28-1.14-.08-.38-.12-.8.19-1.09.43-.41.63-.46,1.19-.55.01-.07.02-.14,0-.18-.06-.4-.8.02-1-.02.04-.18.02-.52-.27-.43-.21.07-.17.39-.26.56.03-.44.14-.84.1-1.29-.05-.42-.21-.79-.23-1.23-.02-.35-.1-1,.07-1.27.1-.17.35-.17.23-.49-.04-.1-.18-.17-.2-.23-.02-.05-.02-.09,0-.13.04.06.08.12.12.19.58.86,1.16,1.65,1.91,2.37.02.02.05.04.07.06,0,.08.02.16.02.25.03.53.04,1.06.11,1.58.06.46.16.91.36,1.34.38.81-.02,1.75-.38,2.5ZM90.21,53.36c-.04-.31-.35-.6-.34-.91,0-.09.12-.18.14-.26.1-.49-.1-1.07-.14-1.56-.02-.22-.06-.78.3-.77.3.58.33,1.14.27,1.76-.05.55.14,1.27-.23,1.74ZM93.61,65.22c-.31-.59-.67-1.21-.86-1.87-.1-.32-.31-.7-.34-1.03-.02-.3-.02-.64-.03-.94-.03-.55.07-1.09-.03-1.64-.11-.6-.33-1.18-.56-1.75-.19-.48-.34-.95-.48-1.44-.13-.43-.39-.84-.51-1.23.42.05.56-.45.72-.73.2-.33.45-.63.71-.93.22-.25.56-.52.73-.81.03-.05.05-.09.07-.14.22.7.47,1.39.53,2.13.04.57.05,1.14.13,1.7.2,1.31.55,2.59.74,3.91.15,1.01.44,1.99.54,3.03.09.89.2,1.85.16,2.75-.02.62-.06,1.23-.09,1.83-.15-.34-.29-.69-.43-1.03-.27-.65-.66-1.21-.99-1.83ZM119.45,72.26c.04-.32.48-1.09.45-1.31.1.94.09,2.15-.23,3.05-.34-.52-.3-1.16-.22-1.74ZM110.96,24.59c-.08-.12-.18-.24-.29-.34.12-.07.26-.15.37-.24-.03.2-.05.39-.08.59ZM110.7,15.57c.14-.41-.05-.82.03-1.25.08.08.23.13.31.21-.13-.37.05-1,.07-1.42.13.06.44.1.49-.12.03-.14-.26-.25-.32-.39-.13-.26-.32-.8-.29-1.08.2.11.37.29.55.42,0-.56-.21-1.03-.43-1.53.17.1.31.29.49.41.03-.54-.43-.87-.65-1.32-.23-.46-.24-.91-.17-1.41.31.1.58.69.6,1.04,0-.71-.21-1.16-.38-1.76.9.63,1.97.96,2.9,1.55.69.44.25,1-.11,1.63-.32.57-.69.96-.94,1.61-.32.84-1.15,4.36-2.3,4.4,0-.18-.13-.49-.11-.61.05-.28.19-.21.25-.39ZM109.13,29.21c.1-.24.61-.37.83-.45.39-.15.52-.21.77-.57.04-.06.08-.12.12-.19,0,.11,0,.21,0,.32,0,.95-.41,1.69-.45,2.59-.05,1.06-.02,2.17-.45,3.15-.45,1.02-.88,2.04-1.15,3.13-.23-.53-.42-1.01-.39-1.71.06-1.19.5-2.3.75-3.45.1-.46.27-1.06.24-1.53-.03-.42-.44-.87-.26-1.29ZM111.33,44.49c-.19.34-.33.71-.44,1.08-.13.42-.2.84-.28,1.27-.04-.37-.12-.74-.28-1.1.11.02.26-.04.37-.02.07-.21.14-.67.11-1.05.03-.08.06-.16.09-.23.19-.33.69-1.08,1.05-1.06.05.42-.44.76-.63,1.11ZM115.19,36.67c-.19.36-.38.75-.57,1.13-.56,1.09-1.24,2.03-1.62,3.21-.09.27-.12.75-.3.96-.27.32-.52.09-.85.28-.06.03-.1.3-.18.38-.11.12-.32.1-.45.23-.27.25-.35.61-.48.92-.05.12-.09.24-.14.36-.09-.07-.22-.09-.39-.02.05-.08.08-.17.11-.26.14-.29.27-.59.39-.89.69-1.7,1.65-3.34,2.28-5.06.55-1.5,0-3.3.72-4.74.38-.76.56-1.52.79-2.32.2-.71.19-1.55.45-2.22.14.38.15.89.17,1.28.01.22-.04.46,0,.68.05.29.18.38.24.61.22.84.01,1.94.05,2.82.04.88.19,1.86-.23,2.66ZM118.53,16.18c-.07.28.03.64-.1.9-.33.63-1.46.8-2.07.99-.59.18-1.14.37-1.69.6.66-1.19,1.26-2.42,1.72-3.62.37-.96.74-2,.99-2.99,0-.03.01-.05.02-.08-.04.23-.03.47-.03.69.08-.41.31-.76.67-.91.11.85-.12,1.76-.95,2.12.34-.01.63-.17.9-.39.53.43-.31,1.48-.21,2.09.19-.32.32-.7.73-.82-.09.4.24.4.27.61.05.31-.17.52-.24.81ZM118.47,8.09c.06.4.29.54.2.96-.08.37-.48.76-.66,1.08-.11.2-.17.74-.24.84.1-.14.26-.24.39-.34-.05.36-.44.57-.61.9-.01.03-.02.06-.03.08.42-1.37,1.17-3.25.67-4.6.15-.19.38-.31.61-.33-.17.37-.38,1-.32,1.41ZM119.84,86.83c-.49.87-.1,1.96-.16,2.93-.25-.29-.49-.92-.65-1.29-.23-.52-.18-1.16-.18-1.74,0-2,.56-3.94.56-5.92,0-.58-.08-1.96.44-2.25.24.96.24,2.08.29,3.09.06,1.34.09,2.67.16,4,.03.67-.17.67-.46,1.17ZM128.42,7.64c-.04-.12-.06-.25-.06-.37l.2.63c-.06-.08-.1-.17-.14-.27ZM134.07,17.24c.03.08.05.16.07.23-.09-.09-.18-.18-.24-.25.05.01.12.01.18.01ZM130.97,16.27c.22-.06.36-.02.45.15.08.02.15,0,.22.04-.17-.45-.59-.62-.62-1.15.63-.11,1.39,1.19,1.74,1.61.28.35.79.9,1.28,1.25-.05.13-.1.26-.1.41,0,.12.01.23.03.35-.34-.23-.71-.45-1.03-.71-.34-.29-.83-.41-1.13-.66-.14-.12-.82-.98-.82-1.13,0-.01-.03-.15-.03-.16ZM137.67,42.2c0,.36-.05.77.07,1.1-.42.22-.32.45-.19.81.11.29.12.7-.03.98-.11.22-.37.22-.47.36-.11.15-.04.41-.03.58.02.48-.16.44-.34.83-.06-.04-.16-.05-.23-.05,0,.44-.46.8-.72,1.1-.35.39-.55.87-.85,1.3-.24.36-.48.74-.7,1.11-.19-1.32.09-2.72.05-4.04-.05-1.83-.13-3.68.06-5.5.2-1.91.06-3.92-.3-5.75-.28-1.44-.15-2.93-.16-4.4,0-.74.03-1.52.11-2.26.03-.27.06-.55.09-.83.03.08.05.16.06.25.22,1.72,0,3.47.61,5.14.27.74.54,1.58.91,2.3.33.64.68,1.26.96,1.89.12.28.25.68.29.98.03.2-.07.39-.04.58.03.21.13.24.21.41.07.15.02.36.09.5.07.15.23.22.31.37.16.31.13.87.41,1.08-.07-.02-.17.02-.25.01-.05.37.07.75.07,1.12ZM138.54,6.2c.04.35-.04.58-.29.83-.16.15-.53.24-.53.48.21.03.39-.03.57-.06.02.26-.4.47-.5.73-.06.18-.02.38-.07.55-.06.18-.23.3-.26.5.19.03.34-.1.5-.16-.35.17-.72.69-.55,1.09.17.41.59.41.42.97.29-.27.3-.09.32.15.02.16-.14.19,0,.37.08.11.22.04.3.11.28.26.32,1.02,0,1.32-.89-.59-1.35-1.36-1.46-2.41-.05-.48-.04-1-.04-1.49,0-.91-.24-1.66-.64-2.44-.15-.3-.14-.67-.23-.98-.1-.34-.19-.66-.18-1.03.27.22,1.11.19,1.53.15.53-.05,1.07-.15,1.6-.18-.23.37-.32.73-.61,1.06-.29.33-.3.57-.3,1,0-.26.25-.39.43-.53ZM152.97,10.49c.05.08.09.17.12.25.14.38.17.8.3,1.18.08.22.26.36.36.54.29.5.1.94,0,1.45.23-.04.37-.23.44-.47.33,1.47.85,2.9,1.2,4.37.16.68.39,1.36.58,2.02.18.62.47,1.27.56,1.91.08.58.32,1.27-.25,1.57-.09.05-.17.08-.24.11-.11-.24-.24-.47-.37-.72-.18-.31-.3-.65-.47-.96-.3-.55-.67-1.07-1.01-1.59-.35-.54-.72-.91-1.18-1.31-.26-.23-.22-.19-.11-.49.1-.27.16-.45.16-.75.01,0,.09,0,.1,0,.07.12.18.25.22.39.06.17,0,.38.1.51.04-.75-.25-1.31-.53-1.96.31.06.33.36.57.5-.02-.57-.71-.96-.72-1.53.31-.08.7.51.84.75,0-.58-.32-.94-.61-1.37-.16-.24-.56-.98-.34-1.21.25.18.45.62.55.9-.08-.83-.52-1.5-.69-2.27.27-.16.38.29.51.45,0-.42-.26-.87-.39-1.26-.13-.39.04-.76-.13-1.13-.16-.35-.54-.61-.6-1.01.35-.2.9.87,1.04,1.12ZM147.58,30.25c0-.37.13-.56.41-.8-.36-.31.05-.7.21-.96.19-.3.21-.62.41-.93.35-.54.62-1.52,1.33-1.72-.04.54-.57,1.36-.31,1.92.18-.11.15-.42.28-.6,0,.31-.08.77.1,1.01.03-.19.04-.52.18-.65.08.34.19.51.36.79-.21-.42-.27-1.45.07-1.85.11.23.02.59.19.76.08-.42-.03-.98-.03-1.42,0-.48-.03-1.06.44-.59.83.82,1.61,1.8,2.42,2.67.46.49,1,.93,1.46,1.42.61.66,1.08,1.41,1.57,2.15.1.15.14.27.24.39.07.09.2.19.25.29.19.35-.03.41-.34.66-.24.19-.38.27-.66.37-.53.2-.92.57-1.46.73-.4.12-.8.26-1.18.43-.31.14-.7.46-1.04.45-.31-.01-.47-.26-.69-.44-.4-.32-.77-.65-1.13-1.02-.28-.29-.47-.68-.76-.95-.37-.33-.4.18-.76.18.14-.61-.84.08-1.06.15-.06-.15-.03-.34-.08-.48-.01-.04-.18-.07-.22-.14-.02-.05.07-.18.03-.25-.1-.2-.51-.4-.5-.65,0-.15.24-.28.28-.42.04-.16-.03-.34-.03-.5ZM147.31,93.58c0-.06,0-.12.01-.18.03-.34.17-.71.35-1.03-.1.41-.25.81-.37,1.22ZM161.48,47.87c-.05.14-.2.19-.24.35-.04.14.05.41.08.55.05.36.08.62-.11.95-.08.13-.2.17-.26.33-.06.17.04.38,0,.55-.09.35-.36.41-.42.76-.06.32.02.72-.03,1.07-.06.4-.2.89-.43,1.22-.07.1-1.03,1.05-.35.94,0,.32-.4.38-.33.71.08,0,.15.06.24.06,0,.15-.86.98-.09.81.1-.02-.19,1.48-.23,1.68-.15.72-.34,1.46-.53,2.18-.21.79-.31,1.62-.47,2.42-.17.82-.16,1.73-.45,2.51-.47,1.28-1.14,2.46-1.7,3.69-.18.39-.32.77-.51,1.16-.63,1.25-1.38,2.42-1.93,3.72-.22.53-.41,1.07-.62,1.6-.21.54-.43,1.13-.59,1.7-.08.3-.15.57-.26.86-.2.53-.33,1.11-.51,1.64-.21.63-.44,1.28-.61,1.92-.19.73-.52,1.43-.71,2.16-.21.79-.17,1.46-.69,2.11-.38.48-.84,1.13-.98,1.75-.07-.1-.14-.21-.19-.33-.17-.37-.07-.94-.1-1.36-.04-.68.41-1.29.74-1.85.24-.4.41-.83.57-1.28.52-1.54.8-3.12,1.21-4.7.19-.75.59-1.47.7-2.23.14-.92.27-1.84.35-2.77.07-.83.07-1.67.15-2.51.11-1.1-.05-2.01-.39-3.07-.23-.71-.09-1.45,0-2.17.04-.28.13-.53.17-.81.05-.39-.06-.78,0-1.17.07-.5.22-1,.28-1.5.12-.87.17-1.77.38-2.62.08-.34.23-.67.28-1.01.14-.84.17-1.65.22-2.52.09-1.6.46-3.24.69-4.82.22-1.46.91-2.95.54-4.46.09.09.18.1.29.13.19.06-.48-1.53-.49-1.58-.04-.26,0-.49-.07-.76-.1-.35-.25-.68-.33-1.04-.14-.62-.3-1.28-.48-1.89-.33-1.15-.64-2.45-1.43-3.31-.3.43-.81-.37-.96-.66.27-.12.66.09.93.15.9.19,1.92-.04,2.81-.23.3-.06.58-.19.91-.2.34-.02.66-.03.98-.12.72-.22,1.46-.45,2.19-.73.52,1.38,1.08,2.74,1.53,4.14.31.96.58,1.93.81,2.9.22.9.26,1.78.4,2.7.06.38.09.75.09,1.15,0,.36.07.86-.05,1.18ZM163.15,11.22c.21-.05.35-.21.58-.16-.24.46-.57.76-1.13.8.23.13.51.08.78.09-.07.27-.31.3-.46.49-.15.2-.21.5-.2.76.04-.23.33-.47.54-.49-.01.23-.16.56-.3.76-.17.24-.49.27-.62.47.35.13.67-.08,1.01-.04.01.27.05.58-.12.8-.16.2-.4.2-.55.37.12.06.28.12.38.14-.27.19-.65-.04-.77.38-.07.25.11.61.29.76.02-.3.01-.6.31-.72.26-.11.62.02.72.26.13.31-.71.74-.97,1.07-.16-.12-.41-.39-.47-.59-.24-.03-.47.02-.66.11-.22-.54-.83-.06-1.12.12,0,0-1.06-.95-1.15-1.04-.36-.35-.59-.81-.82-1.24-.13-.24-.14-.53-.21-.8-.17-.66-.26-1.35-.46-2.01-.04-.14-.64-1.8-.57-1.8.68.03,1.17-.33,1.78-.51.59-.17,1.33-.33,1.95-.27.63.06,1.27.25,1.83.47.6.24,1.24.28,1.77.62-.53.34-1.16.53-1.35,1.19ZM182.86,23.99s-.03.07-.06.1c-.08.07-.25.06-.42.03.16-.04.32-.08.48-.13ZM175.32,14.08c1.01.25,2.04.91,2.89,1.48.46.31.95.63,1.39.99.79.64,1.46,1.42,2.29,1.99.2.14.57.31.72.47.21.22.18.49.29.76-.41.1-.84-.04-1.26.04-.42.08-.87.18-1.32.21-.76.07-1.54.09-2.31.1-.37,0-1.24.13-1.48-.19-.26-.34.03-.15.13-.31.11-.18.04-.35.3-.43.02-.2-.11-.35-.28-.42-.04-.16-.03-.32.08-.42.21.1.47.31.72.25-.31-.29-.77-.62-.67-1.12.17.08.3.21.45.32.03-.55-.38-.74-.58-1.14.24-.05.4.1.62.11-.3-.13-.62-.24-.79-.59-.12-.25-.07-.58-.26-.81-.29-.35-1.35-.65-.93-1.31ZM183.34,51.78c-.2.72-.41,1.59-.73,2.23-.2.4-.83,1.17-.12,1.42.07.02-.91,3.49-.96,3.77-.07.41-.14.83-.21,1.25-.08-1.34-.12-2.69-.1-4.02.04-1.83.33-3.66.42-5.49.04-.85-.15-1.7-.11-2.55.04-.79-.09-1.43-.28-2.2-.17-.69-.39-1.36-.59-2.05-.23-.79-.58-1.34-1.09-1.98-.46-.59-.85-1.21-1.32-1.78-.44-.54-.97-.9-1.32-1.53-.36-.64-.73-1.29-1.18-1.91-.45-.63-.99-1.23-1.46-1.81-.18-.22-.29-.55-.5-.73-.2-.17-.68-.09-.88-.35-.21-.28-.15-.86-.3-1.18-.16-.37-.28-.82-.13-1.23.26-.69.54-.07.79.26.36.47.68,1.09,1.23,1.39-.08-.44-.51-.67-.5-1.17.15.21.45.45.67.49.07-.56-.77-1-.67-1.68.9-.12,1.33,1.36,1.52,1.98,0-.54.02-1-.29-1.47-.21-.32-.77-.63-.68-1.05.43-.07.81.4,1.01.74-.21-.61-.91-1.19-.79-1.89.15.04.24.14.37.24-.02-.27-.06-.54-.07-.8.52.19.8,1.2.77,1.93.06-.23.11-.45.11-.7,0-.45-.31-.87-.25-1.32,1.29.22.67,2.79,1.02,3.63.11-.4-.04-.85-.05-1.26-.02-.41.04-.79.04-1.2,0-.51-.14-.81-.42-1.23-.19-.27-.53-.65-.5-1,.26.12.43.43.64.63.02.02,0-.48-.01-.54-.08-.23-.27-.42-.42-.61-.26-.34-.75-.88-.38-1.29.42-.46,1.42-.44,1.96-.54.91-.17,1.8-.45,2.71-.62.19-.04.37-.07.56-.11-.2.14-.42.27-.51.52-.11.3-.06.58-.24.86-.2.32-.33.4-.38.8-.09.81-.28,1.98.04,2.74.08.21.26.49.41.62.26.23.53.13.86.2.3.06.56.11.88.13.47.03.41.2.35.66-.07.53-.03,1.02-.1,1.55-.08.62-.17,1.25-.17,1.88,0,.79-.03,1.59,0,2.38.07,1.69.65,3.12,1.24,4.68.45,1.19.83,2.45,1.19,3.68.18.61.43,1.26.45,1.95.07,1.79-1.08,3.07-1.54,4.69ZM188.15,72.41c-1.08-.97-1.61-2.47-1.61-3.93,0-.74-.01-2.1.69-2.48.04.47.2.86.2,1.37,0,.45-.11.93.11,1.33.25.44.57.56.63,1.12.1.88.04,1.72,0,2.61ZM189.23,14.15c-.24.22-.44.82-.72.88-.04-.31.11-.91,0-1.18.02.05.08.13.1.19.02-.26-.02-.56.03-.8.07.09.12.22.13.33,0-.41-.02-.83-.12-1.2-.3-.18.02-1.6.05-1.94.07.31.36.74.68.74-.04,1.02.52,1.73.99,2.52-.42-.02-.82.17-1.14.46ZM200.81,19.88c.14.13.24.32.32.54-.09.18-.16.37-.22.56-.15-.37-.25-.75-.1-1.1ZM196.9,32.82c.24.41.18,1.13.22,1.61.04.56-.03,1.12-.03,1.69,0,.61.23,1.21-.23,1.6.1-.09-.24-2.15-.25-2.42-.02-.81.02-1.71.29-2.47ZM196.05,35.07c-.13.35.03,1.35.03,1.72,0,.37.2,1.12-.04,1.43-.27-.41-.12-1.16-.13-1.63,0-.48-.07-1.07.14-1.52ZM194.92,38.46c-.03.21-.64-.05-.71-.14-.22-.29-.03-.58.06-.87.27-.84.54-1.71.73-2.57.03.37-.1.75-.12,1.1-.04.79.16,1.71.03,2.48ZM191.5,34.85c0-.14.02-.26.04-.4.09-.63.04-1.32.07-1.99.03-.62.39-1.11.66-1.65.31-.61.48-1.31.83-1.9.16-.27.34-.52.6-.69.07-.04.72-.25.71-.19-.12.56-.54.96-.72,1.49-.17.51-.2,1.06-.5,1.53-.16.25-.59.48-.62.78.1-.09.23-.16.36-.16-.26.1-.69.49-.71.83.07-.12.17-.27.29-.36,0,.21-.03.4-.03.62,0-.06-.02-.11-.03-.17-.29.15-.31.85-.44,1.16-.15.37-.35.76-.53,1.1ZM193.22,37.43c-.36-.21-1.44-1.08-1.57-1.53-.17-.61.33-1,.5-1.51,0,.04,0,.07,0,.11.16-.17.26-.41.34-.64,0,.15,0,.3,0,.45.21-.41.38-.84.49-1.3.02.25-.04.48-.03.72.28-.53.48-1.11.66-1.69.19-.65.48-1.78.91-2.27.04.61-.19,1.19-.33,1.77-.13.54-.25,1.07-.32,1.62-.14.99-.62,2.02-.57,3.02.07-.09.13-.22.17-.37.1-.33.14-.77.2-1.04.09-.45.18-.92.24-1.37.19-1.35.48-2.67.93-3.98.36.49-.13,1.95-.24,2.52-.25,1.33-.51,2.65-.89,3.94-.13.45-.22,1.2-.51,1.53ZM197.6,44.59c-.07.63-.04,1.28-.07,1.92-.01.38-.28.67-.4,1.01-.14.38-.22.62-.45.97-.17.25-.3.56-.45.85-.26.49-.61.91-.88,1.4-.25.48-.45.94-.75,1.4-.14.21-.29.45-.43.69,0-.31.01-.61.08-.88.12-.52.61-1.11.86-1.57.3-.57.6-1.14.92-1.7.62-1.14.9-2.26.88-3.61-.01-1.23-.28-2.73-1.2-3.52.56-.63,1.53-.7,2.19-1.2.02-.01.04-.02.05-.04-.06.73-.14,1.45-.14,2.19s-.15,1.41-.23,2.1ZM203.13,39.07c-.23.5-.48,1-.69,1.51-.17.42-.25.87-.42,1.29-.16.4-.46.69-.64,1.08-.31.67-.49,1.54-.92,2.13-.16-.48.12-1.16.21-1.65.11-.57.24-1.15.41-1.7.16-.53.25-1.09.37-1.61.11-.45.27-.88.33-1.33.03-.25.04-.51.06-.76.21-.1.42-.21.63-.33.52-.3,1.05-.63,1.54-1-.06.13-.11.27-.16.4-.22.66-.42,1.34-.72,1.97Z"/></svg>