<?xml version="1.0" standalone="no"?>
<!DOCTYPE svg PUBLIC "-//W3C//DTD SVG 20010904//EN"
 "http://www.w3.org/TR/2001/REC-SVG-20010904/DTD/svg10.dtd">
<svg version="1.0" xmlns="http://www.w3.org/2000/svg"
 width="1024.000000pt" height="1024.000000pt" viewBox="0 0 1024.000000 1024.000000"
 preserveAspectRatio="xMidYMid meet">

<g transform="translate(0.000000,1024.000000) scale(0.100000,-0.100000)"
fill="#000000" stroke="none">
<path d="M0 5120 l0 -5120 5120 0 5120 0 0 5120 0 5120 -5120 0 -5120 0 0
-5120z m5225 3630 c14 -6 4 -9 -36 -9 -220 -3 -551 -176 -713 -371 l-28 -35
23 42 c28 49 129 157 202 215 57 44 175 106 252 132 93 30 257 45 300 26z
m190 -120 c18 0 112 -65 164 -114 65 -61 108 -132 127 -206 l17 -66 59 -27
c92 -44 159 -151 234 -374 68 -204 131 -319 266 -486 49 -62 97 -124 106 -139
9 -16 19 -28 23 -28 4 0 12 29 19 65 20 104 1 184 -66 277 l-45 63 54 -57 c30
-31 68 -83 83 -115 25 -51 29 -69 29 -148 0 -74 -4 -100 -24 -144 l-24 -53
-20 42 c-26 55 -70 82 -199 124 -58 19 -132 48 -165 65 -144 72 -254 186 -309
318 -37 90 -30 103 20 37 25 -33 64 -77 87 -99 38 -36 41 -37 24 -10 -28 45
-86 146 -103 180 -55 108 -122 179 -246 260 -65 43 -176 142 -176 157 0 5 21
-7 46 -27 26 -19 50 -35 54 -35 8 0 124 -52 237 -106 95 -46 178 -160 228
-314 36 -112 105 -200 221 -283 50 -36 124 -73 124 -62 0 3 -18 22 -39 43
-111 108 -217 251 -295 400 -116 222 -168 273 -386 382 -119 59 -219 136 -279
214 -51 66 -53 81 -3 34 20 -20 60 -48 87 -62 53 -27 173 -56 231 -56 32 0 34
2 34 34 0 81 -80 204 -182 281 -35 27 -55 45 -45 42 10 -4 25 -7 32 -7z m180
-44 c46 -21 124 -75 174 -120 88 -81 181 -255 181 -342 0 -34 -3 -31 -46 53
-57 108 -68 124 -161 240 -43 53 -102 113 -139 140 -56 41 -81 63 -56 51 4 -2
25 -12 47 -22z m-823 -383 c-39 -49 -166 -171 -217 -208 -232 -170 -421 -383
-504 -566 -41 -91 -71 -224 -72 -321 -2 -112 -16 -56 -18 69 -3 218 94 437
284 640 84 90 136 131 320 253 77 51 160 110 184 132 24 21 46 38 48 38 3 0
-9 -17 -25 -37z m427 -84 c-64 -127 -200 -259 -345 -337 -54 -29 -119 -71
-144 -94 -25 -23 -72 -66 -105 -96 -51 -47 -243 -182 -260 -182 -9 0 -150 -92
-192 -126 -22 -19 -62 -62 -88 -96 l-47 -63 4 40 c11 87 108 288 180 370 85
96 238 184 413 235 196 59 288 98 380 164 67 48 164 145 195 194 32 52 38 46
9 -9z m366 -283 c-5 -24 -18 -44 -41 -61 -19 -15 -45 -43 -58 -63 -25 -39 -56
-157 -56 -215 0 -58 -30 -68 -112 -35 -16 6 -28 14 -28 19 0 14 30 10 61 -8
15 -9 31 -15 33 -12 3 3 12 34 21 70 42 173 49 187 134 262 17 15 34 41 38 58
3 16 8 28 10 25 2 -2 1 -20 -2 -40z m-258 -80 c7 -1 16 -5 19 -9 14 -14 -41
-6 -66 9 l-25 15 30 -6 c17 -4 35 -8 42 -9z m383 -176 c57 -145 163 -269 330
-387 103 -74 300 -177 433 -227 89 -33 185 -90 221 -129 80 -88 86 -191 17
-292 l-26 -39 32 -66 c88 -174 63 -379 -65 -540 -49 -62 -143 -144 -201 -175
-37 -20 -41 -21 -21 -4 14 11 44 36 67 55 106 87 196 239 210 352 7 60 -12
152 -44 217 -40 78 -179 209 -321 300 -362 235 -461 342 -576 625 -69 171 -97
277 -102 384 l-4 101 14 -60 c8 -33 24 -85 36 -115z m-155 104 c-26 -20 -55
-36 -55 -30 0 5 63 46 70 46 3 -1 -4 -8 -15 -16z m-746 -21 c-104 -134 -176
-189 -297 -227 -113 -35 -123 -32 -27 8 103 42 207 110 276 180 56 56 72 69
48 39z m787 -243 c-24 -122 -21 -295 5 -372 27 -80 71 -167 106 -208 27 -33
27 -33 3 -20 -14 7 -55 43 -91 79 -136 136 -152 292 -55 544 46 122 58 114 32
-23z m-735 -25 c29 -56 -2 -21 -35 40 -21 39 -23 44 -6 25 11 -14 30 -43 41
-65z m440 38 c-8 -15 -10 -15 -11 -2 0 17 10 32 18 25 2 -3 -1 -13 -7 -23z
m-67 -18 c35 -6 37 -8 24 -21 -14 -14 -19 -14 -53 0 -21 9 -47 16 -58 16 -20
0 -20 -1 3 -26 19 -19 31 -24 49 -19 25 6 25 6 7 -14 -11 -12 -28 -21 -39 -21
-11 0 -39 -18 -63 -40 -51 -47 -102 -54 -144 -19 l-25 21 27 -16 c44 -26 80
-20 118 19 19 19 40 35 46 35 25 0 25 21 1 63 l-24 43 46 -7 c25 -5 64 -11 85
-14z m-589 -180 c4 -13 1 -11 -8 5 -20 35 -30 103 -21 142 7 28 9 21 15 -47 4
-44 10 -89 14 -100z m1003 75 c77 -282 265 -509 610 -734 122 -80 246 -200
286 -275 21 -39 30 -73 34 -122 4 -60 1 -75 -26 -134 -33 -70 -82 -122 -227
-244 -173 -146 -289 -296 -335 -431 -30 -90 -28 -218 6 -290 14 -30 40 -71 57
-90 l32 -34 -35 26 c-19 14 -51 49 -72 79 -120 174 -78 409 119 660 174 222
213 294 221 401 4 56 0 84 -22 151 -35 109 -90 181 -257 337 -233 220 -352
396 -399 590 -17 72 -28 202 -16 189 2 -2 13 -38 24 -79z m-744 24 c3 -8 2
-12 -4 -9 -6 3 -10 10 -10 16 0 14 7 11 14 -7z m-389 -179 c142 -37 271 -124
340 -228 16 -25 59 -177 51 -184 -2 -2 -14 29 -26 69 -20 65 -30 80 -94 143
-83 82 -162 126 -263 149 -91 20 -145 20 -214 0 -115 -34 -197 -100 -247 -199
-105 -209 -57 -420 183 -810 262 -426 388 -649 430 -763 7 -20 23 -62 35 -92
57 -148 76 -368 45 -514 -8 -38 -38 -126 -67 -195 -28 -69 -62 -160 -74 -201
-13 -41 -23 -66 -23 -55 -1 23 38 165 67 245 87 237 93 436 22 643 -77 222
-163 390 -421 817 -160 264 -196 335 -245 475 -36 104 -38 117 -38 235 -1 116
1 130 29 200 23 58 44 89 90 136 75 75 100 92 183 120 80 27 156 30 237 9z
m414 -475 c0 -9 -4 -8 -9 5 -5 11 -9 27 -9 35 0 9 4 8 9 -5 5 -11 9 -27 9 -35z
m681 -134 c219 -93 378 -211 415 -308 27 -72 17 -167 -26 -249 -36 -70 -154
-195 -209 -222 -18 -9 -34 -17 -34 -17 -1 0 28 31 65 68 78 80 108 125 139
210 63 174 -39 316 -360 502 -47 27 -82 50 -78 50 3 0 43 -16 88 -34z m-621
-26 c0 -9 -4 -8 -9 5 -5 11 -9 27 -9 35 0 9 4 8 9 -5 5 -11 9 -27 9 -35z m46
-96 c19 -42 35 -83 35 -90 0 -7 3 -14 8 -16 11 -5 76 -138 70 -144 -5 -5 -46
76 -122 240 -37 81 -39 86 -31 86 2 0 20 -34 40 -76z m-456 -180 c12 -24 26
-44 32 -44 5 0 7 -5 3 -11 -4 -7 -18 6 -34 32 -15 24 -34 50 -43 58 -10 7 -17
20 -17 29 0 25 35 -13 59 -64z m108 -166 c17 -32 33 -55 37 -51 5 5 7 -2 6
-22 -1 -3 7 -13 16 -23 10 -9 34 -42 53 -72 20 -30 48 -71 63 -90 15 -19 31
-46 37 -60 6 -14 18 -35 26 -47 12 -16 13 -23 4 -29 -8 -4 -9 -3 -5 4 4 7 4
12 -1 12 -10 1 -58 68 -134 190 -33 52 -86 136 -118 187 -33 50 -57 94 -54 97
8 8 35 -30 70 -96z m487 50 c-3 -4 -1 -8 4 -8 5 0 17 -19 28 -42 10 -24 43
-88 73 -143 29 -55 79 -147 109 -205 30 -58 60 -112 67 -120 7 -8 25 -40 40
-70 15 -30 35 -66 45 -80 9 -14 15 -31 12 -39 -2 -8 0 -11 5 -8 6 4 15 -5 21
-18 7 -15 8 -27 2 -30 -6 -3 -22 18 -37 48 -69 135 -93 179 -108 193 -8 9 -13
19 -10 24 3 5 2 10 -3 12 -7 2 -87 152 -237 441 -24 45 -37 101 -16 67 6 -8 7
-18 5 -22z m499 -528 c-3 -11 -9 -20 -12 -20 -4 0 -8 -8 -8 -17 1 -10 0 -43
-1 -73 l-2 -55 -15 29 c-16 31 -21 111 -6 102 5 -4 7 4 3 16 -3 13 -1 19 5 15
6 -4 13 0 17 8 8 22 25 18 19 -5z m-658 -26 c1 -10 6 -18 13 -17 7 2 9 -4 5
-14 -5 -12 -3 -14 8 -8 8 4 11 5 7 1 -4 -5 13 -32 37 -62 24 -29 50 -64 56
-76 7 -13 15 -25 18 -28 22 -18 80 -100 74 -103 -16 -10 -233 292 -225 312 3
9 1 12 -6 7 -6 -3 -13 -2 -16 3 -4 5 2 8 11 7 10 -2 18 -12 18 -22z m629 -297
c4 4 4 -1 0 -11 -5 -14 -4 -17 4 -12 7 4 12 1 12 -6 0 -8 17 -41 39 -74 21
-32 36 -65 33 -73 -4 -10 -1 -12 8 -6 9 6 11 4 5 -4 -10 -17 -17 -8 -59 72
-20 38 -36 65 -36 61 0 -4 -15 22 -34 57 -18 35 -31 68 -28 74 3 5 16 -12 27
-38 12 -26 25 -44 29 -40z m-384 -21 c0 -3 -4 -8 -10 -11 -5 -3 -10 -1 -10 4
0 6 5 11 10 11 6 0 10 -2 10 -4z m50 -44 c8 -2 22 -9 30 -16 8 -6 32 -21 52
-31 20 -10 34 -23 31 -29 -4 -5 1 -7 12 -3 9 4 23 3 29 -2 6 -5 34 -19 61 -30
66 -26 41 -27 -37 0 -117 39 -237 116 -222 141 4 7 11 3 18 -8 6 -11 18 -20
26 -22z m489 -207 c21 -38 25 -51 12 -35 -11 14 -26 37 -33 52 -7 15 -15 25
-18 23 -3 -2 -6 5 -6 16 0 24 6 17 45 -56z m-104 -89 c22 -17 43 -35 47 -41 5
-6 8 -6 8 0 0 7 3 7 8 0 4 -6 32 -29 62 -52 64 -48 245 -229 318 -318 27 -33
74 -99 105 -146 178 -277 249 -537 227 -834 -15 -205 -65 -383 -159 -568 -50
-97 -170 -279 -194 -293 -6 -4 -5 1 4 12 18 21 139 222 139 230 0 3 14 33 31
67 150 302 180 721 74 1033 -43 127 -163 343 -258 464 -84 107 -236 266 -336
353 -138 119 -172 152 -141 137 14 -7 43 -27 65 -44z m-1108 -688 c-3 -8 -6
-5 -6 6 -1 11 2 17 5 13 3 -3 4 -12 1 -19z m-106 -278 c57 -6 149 -20 204 -31
111 -22 359 -98 443 -135 l55 -24 -29 -22 c-48 -36 -102 -100 -130 -153 -15
-27 -28 -51 -30 -53 -1 -2 -20 6 -42 17 -117 60 -322 123 -493 152 -105 18
-152 20 -304 16 -259 -6 -411 -39 -588 -128 -167 -83 -280 -175 -374 -303 -76
-103 -136 -234 -146 -321 l-7 -50 19 40 c53 116 184 271 291 344 236 161 539
223 854 176 264 -40 516 -171 652 -339 23 -28 58 -86 78 -128 23 -48 43 -78
53 -78 24 0 77 62 91 106 7 21 17 86 23 144 30 298 48 374 109 460 27 38 98
95 130 105 22 7 20 3 -17 -38 -45 -49 -70 -93 -99 -172 -14 -42 -18 -98 -24
-335 l-6 -285 -37 -107 c-53 -158 -101 -246 -256 -478 -130 -193 -198 -326
-237 -459 -13 -46 -24 -97 -24 -114 0 -25 -3 -28 -12 -19 -9 9 -13 59 -13 175
0 146 3 171 28 261 15 54 39 126 53 160 14 33 42 106 61 160 85 237 42 427
-136 606 -146 148 -314 232 -549 276 -116 22 -324 15 -437 -15 -191 -50 -372
-173 -469 -320 -69 -106 -90 -175 -91 -301 0 -99 2 -109 33 -172 74 -150 224
-222 362 -173 36 13 41 13 30 1 -25 -31 -97 -49 -170 -43 -89 7 -173 50 -238
122 -239 261 -187 726 117 1055 297 323 751 472 1272 420z m1629 -1303 c0 -2
-10 -12 -22 -23 l-23 -19 19 23 c18 21 26 27 26 19z"/>
<path d="M4535 7671 c-127 -45 -239 -121 -322 -218 -57 -67 -100 -128 -87
-122 12 5 114 69 237 150 91 59 238 191 226 203 -2 2 -27 -4 -54 -13z"/>
<path d="M5808 7243 c32 -70 91 -148 169 -224 90 -87 144 -125 343 -239 148
-85 262 -167 281 -201 15 -30 35 -22 52 19 66 164 -13 269 -268 357 -273 95
-455 189 -557 289 l-37 36 17 -37z"/>
<path d="M6357 6330 c40 -97 44 -237 10 -342 l-25 -77 28 14 c32 17 75 71 97
122 35 84 -1 202 -89 297 l-47 51 26 -65z"/>
</g>
</svg>
