<?xml version="1.0" encoding="UTF-8"?>
<svg width="60.995" height="22.869" enable-background="new 0 0 244 36" version="1.1" viewBox="0 0 60.995 22.869" xmlns="http://www.w3.org/2000/svg">
 <path d="m58.812 2.5561c1.4478 1.6005 2.1826 3.6037 2.1826 5.9529 0 2.3502-0.73482 4.3534-2.1836 5.9549-1.4577 1.6303-3.4371 2.4573-5.8845 2.4573-2.1073 0-3.8258-0.72391-5.112-2.1519v8.0999h-3.0186v-22.523h3.0186v1.8742c1.2872-1.4101 3.0593-2.1251 5.2687-2.1251 2.3423 9.913e-4 4.2701 0.82804 5.7288 2.4603zm-0.83597 5.9519c0-1.5976-0.46707-2.9343-1.3873-3.9726-0.98571-1.1037-2.2352-1.6402-3.8189-1.6402-1.6005 0-2.8282 0.5345-3.7505 1.6333-0.88258 1.0402-1.3308 2.379-1.3308 3.9795s0.44724 2.9393 1.3298 3.9785c0.92324 1.1007 2.1499 1.6352 3.7515 1.6352 1.5847 0 2.8342-0.53748 3.8199-1.6412 0.92026-1.0373 1.3863-2.374 1.3863-3.9726zm-19.232-8.022c-1.396-0.604-3.132-0.647-4.531-0.117-1.382 0.519-2.464 1.353-3.216 2.483-0.501-0.816-1.151-1.476-1.932-1.964-0.945-0.589-1.988-0.888-3.099-0.888-1.87 0-3.37 0.65-4.46 1.933v-1.68h-3.044v16.461h3.044v-9.777c0-1.286 0.39-2.309 1.16-3.041 0.741-0.721 1.645-1.072 2.763-1.072 1.047 0 1.883 0.355 2.555 1.084 0.678 0.774 1.021 1.783 1.021 2.997v9.809h3.044v-9.777c0-1.305 0.379-2.299 1.161-3.041 0.73-0.711 1.66-1.072 2.763-1.072 1.047 0 1.883 0.355 2.555 1.084 0.678 0.774 1.021 1.783 1.021 2.997v9.809h3.044v-9.872c0-1.974-0.626-3.646-1.863-4.97-0.575-0.598-1.243-1.064-1.986-1.386zm-22.409 7.997c0-2.412-0.732-4.434-2.175-6.008-1.533-1.642-3.549-2.475-5.992-2.475-2.444 0-4.461 0.833-5.995 2.477-1.442 1.573-2.173 3.593-2.173 6.006 0 2.394 0.764 4.416 2.271 6.01 1.554 1.641 3.591 2.473 6.054 2.473 1.939 0 3.552-0.469 4.795-1.392 1.236-0.92 2.151-2.139 2.718-3.624l0.175-0.459h-3.284l-0.095 0.181c-0.871 1.663-2.27 2.471-4.278 2.471-1.46 0-2.677-0.457-3.618-1.358-0.839-0.803-1.37-1.818-1.579-3.017h13.175v-1.285zm-13.13-1.6c0.239-1.13 0.753-2.068 1.528-2.79 0.92-0.842 2.076-1.269 3.434-1.269s2.512 0.426 3.431 1.266c0.776 0.724 1.291 1.663 1.53 2.793z" fill="#92d400"/>
</svg>
