<svg xmlns="http://www.w3.org/2000/svg" xmlns:xlink="http://www.w3.org/1999/xlink" viewBox="0 0 140 55"><defs><linearGradient id="a" x1="30.91" y1="5.34" x2="30.91" y2="50.76" gradientUnits="userSpaceOnUse"><stop offset="0.32" stop-color="#f4b827"/><stop offset="1" stop-color="#9b7019"/></linearGradient></defs><path d="M62.59,42.88a.19.19,0,0,1,.18-.2h.65a.2.2,0,0,1,.19.2V49h2.66a.2.2,0,0,1,.19.2v.57a.19.19,0,0,1-.19.2h-3.5a.19.19,0,0,1-.18-.2Z" fill="#f4b827"/><path d="M67.59,42.88a.2.2,0,0,1,.19-.2h.64a.2.2,0,0,1,.19.2v6.89a.2.2,0,0,1-.19.2h-.64a.2.2,0,0,1-.19-.2Z" fill="#f4b827"/><path d="M70.17,48.92c.09-.13.17-.29.26-.43s.22-.17.33-.08a2.85,2.85,0,0,0,1.58.72,1,1,0,0,0,1.11-1c0-.62-.52-1-1.49-1.45s-1.79-1-1.79-2.21a2,2,0,0,1,2.16-1.92,3.22,3.22,0,0,1,1.81.61.26.26,0,0,1,.06.36c-.08.12-.16.27-.24.39a.23.23,0,0,1-.35.11,2.79,2.79,0,0,0-1.32-.53,1,1,0,0,0-1.11.94c0,.6.43,1,1.24,1.31,1.14.49,2.12,1.07,2.12,2.34a2.06,2.06,0,0,1-2.2,2,3.09,3.09,0,0,1-2.11-.83A.23.23,0,0,1,70.17,48.92Z" fill="#f4b827"/><path d="M76.93,43.66h-1.6a.18.18,0,0,1-.18-.2v-.58a.18.18,0,0,1,.18-.2h4.23a.18.18,0,0,1,.18.2v.58a.18.18,0,0,1-.18.2H78v6.11a.2.2,0,0,1-.19.2h-.65a.2.2,0,0,1-.19-.2Z" fill="#f4b827"/><path d="M80.9,42.88a.2.2,0,0,1,.19-.2h.65a.2.2,0,0,1,.19.2v6.89a.2.2,0,0,1-.19.2h-.65a.2.2,0,0,1-.19-.2Z" fill="#f4b827"/><path d="M83.93,42.76a.19.19,0,0,1,.19-.18h.24l4.27,5.23h0V42.88a.18.18,0,0,1,.18-.2h.63a.2.2,0,0,1,.19.2v7a.2.2,0,0,1-.19.19H89.2L84.93,44.7h0v5.07a.19.19,0,0,1-.19.2h-.61a.2.2,0,0,1-.19-.2Z" fill="#f4b827"/><path d="M94.68,42.58a3.45,3.45,0,0,1,2.39,1,.21.21,0,0,1,0,.29l-.45.49c-.07.09-.15.08-.25,0a2.52,2.52,0,0,0-1.67-.71,2.71,2.71,0,0,0,0,5.4,3.36,3.36,0,0,0,1.47-.35V47.49h-1a.18.18,0,0,1-.19-.18V46.7a.19.19,0,0,1,.19-.2H97a.19.19,0,0,1,.17.2c0,.84,0,1.69,0,2.52a.26.26,0,0,1-.07.17,4.74,4.74,0,0,1-2.44.69,3.76,3.76,0,0,1,0-7.5Z" fill="#f4b827"/><path d="M98.39,48.92c.09-.13.17-.29.26-.43s.22-.17.33-.08a2.85,2.85,0,0,0,1.57.72,1,1,0,0,0,1.12-1c0-.62-.52-1-1.49-1.45s-1.79-1-1.79-2.21a2,2,0,0,1,2.15-1.92,3.23,3.23,0,0,1,1.82.61.26.26,0,0,1,.06.36l-.24.39a.23.23,0,0,1-.35.11,2.79,2.79,0,0,0-1.32-.53,1,1,0,0,0-1.11.94c0,.6.43,1,1.24,1.31,1.14.49,2.12,1.07,2.12,2.34a2.06,2.06,0,0,1-2.2,2,3.09,3.09,0,0,1-2.11-.83A.22.22,0,0,1,98.39,48.92Z" fill="#f4b827"/><path d="M106.47,42.88a.19.19,0,0,1,.19-.2h2.24a2.27,2.27,0,0,1,2.2,2.3,2.29,2.29,0,0,1-2.19,2.35h-1.43v2.44a.2.2,0,0,1-.19.2h-.63a.19.19,0,0,1-.19-.2Zm2.37,3.43A1.3,1.3,0,0,0,110.09,45a1.25,1.25,0,0,0-1.25-1.25h-1.36v2.59Z" fill="#f4b827"/><path d="M111.15,49.7l3-7a.23.23,0,0,1,.17-.11h.1a.23.23,0,0,1,.17.11l3,7a.18.18,0,0,1-.16.27h-.62a.23.23,0,0,1-.23-.15L116,48.39h-3.21l-.6,1.43a.25.25,0,0,1-.23.15h-.62A.18.18,0,0,1,111.15,49.7Zm4.45-2.21-1.21-2.85h0l-1.2,2.85Z" fill="#f4b827"/><path d="M118.67,42.76a.19.19,0,0,1,.19-.18h.25l4.26,5.23h0V42.88a.19.19,0,0,1,.19-.2h.63a.2.2,0,0,1,.18.2v7a.2.2,0,0,1-.18.19h-.26l-4.27-5.38h0v5.07a.19.19,0,0,1-.19.2h-.62a.2.2,0,0,1-.19-.2Z" fill="#f4b827"/><path d="M126.39,42.88a.18.18,0,0,1,.18-.2h3.93a.19.19,0,0,1,.19.2v.58a.19.19,0,0,1-.19.2h-3.1v2.13H130a.2.2,0,0,1,.19.19v.59a.19.19,0,0,1-.19.19H127.4V49h3.1a.2.2,0,0,1,.19.2v.57a.19.19,0,0,1-.19.2h-3.93a.18.18,0,0,1-.18-.2Z" fill="#f4b827"/><path d="M132.27,42.88a.19.19,0,0,1,.19-.2h.65a.19.19,0,0,1,.18.2V49H136a.2.2,0,0,1,.18.2v.57a.19.19,0,0,1-.18.2h-3.5a.19.19,0,0,1-.19-.2Z" fill="#f4b827"/><path d="M41.65,16.44a5.89,5.89,0,0,1-1.35-3.81c0-.18-.21-.43-.37-.58a3.58,3.58,0,0,1-1.15-3.72A11.51,11.51,0,0,1,41,3.44a4.23,4.23,0,0,1,6.16-1c2.46,1.59,3.68,4.06,4.6,6.72a2.66,2.66,0,0,1,.16.55,9.36,9.36,0,0,0,4.19,6.49c1.91,1.29,2.37,3.17,1.84,5.37C57.34,24,56.8,26.47,56.27,29c-.14.66.45,4.76-3,17.73a1.68,1.68,0,0,0,1.17.57,3.85,3.85,0,0,1,3.33,2.06s0,.41-3.53.21a5.9,5.9,0,0,1-2.43-.89,4.26,4.26,0,0,1-2.35,1.41c-.35,0,1-2.18,1.22-2.26s1.46-15.4,1.91-17.59c-.12,0-.21,0-.22,0-.25.55-1.69,2.59-3.15,5.31-1.67,3.1-2.88,6.56-4.66,8.3a13.44,13.44,0,0,1-8.07,3.57c-5,.13-10.64,1.1-14.95-.2-1.63-.5-1.29-1.77-1.25-3,.08-3,5.39-3.26,8.83-4.42,1.8-.6,2.3-1.8,2.07-1.78s-4.95-5.84-5.6-7.09c-.37.71-.44,3-3.32,5.31-2,1.82-4,3.85-5.75,5.47-1.66,2.75.69,1.38.48,4.45-.08,1.18-.69,1.75-.81,2.68-.05.42-.16,1.66-.16,1.66l-.85,0s-.08-2.92-.12-2.92c-1.72,0-4,4.83-5.88,5.23-5,1.08-5.37.1-5.51.12s0-.64.93-1.54A31.75,31.75,0,0,1,7.94,49.2c.87-.57.56-2.35,2.51-4.7,1.26-1.52,2.73-2.67,3.48-4.5a81.72,81.72,0,0,1,3.69-8c1.74-2.35,3.8-5.1,4.89-6.93s1.83-2.1,3.73-1.45a13,13,0,0,1,4.6,3c1.43,1.32,2.83,2.68,4.21,4.05.4.4.74.27,1.29.07A9.39,9.39,0,0,1,39.1,30c1-.08,1.15-2.2.67-2.51A2,2,0,0,1,39.22,25a9,9,0,0,1,1.28-1.89,1.88,1.88,0,0,0,.34-1.91c-.22-.59-.39-1.2-.64-1.77A1.82,1.82,0,0,1,41,16.82Z" fill="url(#a)"/><path d="M64.53,31.92c2.15-3.43,4.53-6.71,6.75-10.1a11.19,11.19,0,0,0,1.34-3A16.56,16.56,0,0,0,73.11,11a3.87,3.87,0,0,0-3.47-2.83c-1,0-2,.12-3,.19a9,9,0,0,1-2.06.1c-.53-.09-1.36-.68-.63-1.78s3.37-1,6.14-1A4.93,4.93,0,0,1,75,9.09a27,27,0,0,1,.93,5.49c0,.58,0,.67.46.36A43.38,43.38,0,0,1,82,9.79c1.68-1.1,3.64-.27,4.63,1.52,1.45,2.58.31,6.48.27,7.11,6-5.88,8.69-4,9.86-2.76,1.92,2.1-2.15,9-3.38,11.24-1.61,3-3.26,6-5.14,8.77-1,1.42-3.07,1-2.06-1.14C88,31.46,90,28.47,91.71,25.36c1.08-1.92,1.86-4,2.75-6,.1-.22.54-1.63-.27-2a1.78,1.78,0,0,0-1.3.14c-2.71,1.42-4.55,3.78-6.49,6-2.62,3.06-4.27,6.71-6.29,10.13-.42.71-.81,1.4-1.24,2-.89,1.28-4,.87-2.6-1.35,1.52-2.6,3.27-5.07,4.68-7.73a50.73,50.73,0,0,0,3.18-7.29A17.57,17.57,0,0,0,85,14.52c.09-1.6-1.1-3.18-2.76-1.78a53.43,53.43,0,0,0-5.19,5.34,32.07,32.07,0,0,0-5,7.87,36.64,36.64,0,0,1-5.7,8.53l-.33.4C64.88,36.44,61.75,35.75,64.53,31.92Z" fill="#fff"/><path d="M93.32,35a8.92,8.92,0,0,1,.78-2.71,18.35,18.35,0,0,1,2.79-4.64c1.06-1.61,3.37-.86,1.71,1.77-.35.48-.65.9-.9,1.27s-.51.83-.81,1.4a11.9,11.9,0,0,1,2.58-2.16,5.88,5.88,0,0,1,2.18-.82,2.94,2.94,0,0,1,1.56.18,1.3,1.3,0,0,1,.69,1.89,11.86,11.86,0,0,1-.71,1.19,10.73,10.73,0,0,0-.57.93q-.3.7.18.93a2.32,2.32,0,0,0,1.73-.24.77.77,0,0,1,.63,0,.51.51,0,0,1,.29.41,1.25,1.25,0,0,1-.12.68,1.73,1.73,0,0,1-.87,1,5.33,5.33,0,0,1-1.65.41,3.23,3.23,0,0,1-1.68-.3,2.39,2.39,0,0,1-1.3-1.26,2.3,2.3,0,0,1,.09-1.72,3.91,3.91,0,0,1,.31-.57c.14-.26.23-.43.27-.53s.07-.35-.07-.42-.54,0-1,.32a9.31,9.31,0,0,0-1.67,1.35,15.87,15.87,0,0,0-1.72,2,3.48,3.48,0,0,1-1,1,1.15,1.15,0,0,1-1-.08A1.21,1.21,0,0,1,93.32,35Z" fill="#fff"/></svg>