<svg xmlns="http://www.w3.org/2000/svg" data-name="Warstwa 2" viewBox="0 0 742 165"><path fill="#fe4698" d="M86 85V3h39v144c-2 9-7 15-15 18-9 2-17-1-22-8-6-7-10-15-14-22L40 72v90H0V26C0 15 3 7 14 2c10-4 26-3 31 7l41 76Zm169 0-54 37-14-21 29-19c-12-8-24-5-31 6-9 13-6 32 7 41 13 10 27 3 46-20l24 13c-7 25-37 46-65 43-28-2-50-26-52-55-3-26 17-53 43-60 28-7 55 7 67 35Zm234-33h35l1 65c0 8 5 13 12 13s12-5 12-13V52h36c0 25 1 66-2 77-4 25-25 39-52 36-24-2-41-19-41-43l-1-70Zm189 110V37c1-16 14-29 30-33 11-3 22-2 34-2v33c-10 4-28-6-27 17h27v33h-27v77h-37ZM468 82c-7 0-19-1-29 1-5 1-6 7-2 9l19 9c17 9 22 20 19 36-4 15-16 24-33 25h-45v-34h34c4 0 6-6 2-8l-2-1-14-6c-15-8-22-20-19-37 2-12 15-23 30-24h40v30Zm134-30h31v16c7-13 18-17 32-16v32l-12 1c-12 2-15 7-15 20v57h-36V52Zm-273-3c-32 0-57 26-57 59 0 31 26 57 57 57s57-26 57-58-26-58-57-58Zm-1 81c-12 0-21-10-21-23s10-23 22-23 22 10 21 24c0 12-10 22-22 22Z" data-name="Warstwa 1"/></svg>